<?xml version="1.0" standalone="no"?>
<!DOCTYPE svg PUBLIC "-//W3C//DTD SVG 1.1//EN" "http://www.w3.org/Graphics/SVG/1.1/DTD/svg11.dtd" >
<svg xmlns="http://www.w3.org/2000/svg" xmlns:xlink="http://www.w3.org/1999/xlink" version="1.1">
<metadata></metadata>
<defs>
<font id="bornan" horiz-adv-x="874" >
<font-face units-per-em="2048" ascent="1638" descent="-410" />
<missing-glyph horiz-adv-x="430" />
<glyph unicode="&#xfb01;" horiz-adv-x="1005" d="M16 946v129q0 51 52 51h86v21q0 129 78.5 208t207.5 79h84q51 0 51 -52v-129q0 -51 -51 -51h-84q-41 0 -41 -41v-35h125q51 0 51 -51v-129q0 -51 -51 -51h-125v-844q0 -51 -51 -51h-143q-51 0 -51 51v844h-86q-52 0 -52 51zM662 1276v106q0 35 20 56.5t55 21.5h125 q35 0 55.5 -21.5t20.5 -56.5v-106q0 -35 -20.5 -55.5t-55.5 -20.5h-125q-33 0 -54 20.5t-21 55.5zM678 51v1024q0 51 51 51h143q51 0 52 -51v-1024q0 -51 -52 -51h-143q-51 0 -51 51z" />
<glyph unicode="&#xfb02;" horiz-adv-x="1003" d="M16 946v129q0 51 52 51h86v21q0 129 78.5 208t207.5 79h84q51 0 51 -52v-129q0 -51 -51 -51h-84q-41 0 -41 -41v-35h125q51 0 51 -51v-129q0 -51 -51 -51h-125v-844q0 -51 -51 -51h-143q-51 0 -51 51v844h-86q-52 0 -52 51zM676 51v1331q0 51 51 52h143q51 0 52 -52 v-1331q0 -51 -52 -51h-143q-51 0 -51 51z" />
<glyph unicode="&#xfb03;" horiz-adv-x="1599" d="M16 946v129q0 51 52 51h86v21q0 129 78.5 208t207.5 79h84q51 0 51 -52v-129q0 -51 -51 -51h-84q-41 0 -41 -41v-35h125q51 0 51 -51v-129q0 -51 -51 -51h-125v-844q0 -51 -51 -51h-143q-51 0 -51 51v844h-86q-52 0 -52 51zM610 946v129q0 51 52 51h86v21q0 129 78.5 208 t207.5 79h84q51 0 51 -52v-129q0 -51 -51 -51h-84q-41 0 -41 -41v-35h125q51 0 51 -51v-129q0 -51 -51 -51h-125v-844q0 -51 -51 -51h-143q-51 0 -51 51v844h-86q-52 0 -52 51zM1255 1276v106q0 35 20.5 56.5t55.5 21.5h123q35 0 56.5 -21.5t21.5 -56.5v-106 q0 -35 -21.5 -55.5t-56.5 -20.5h-123q-33 0 -54.5 20.5t-21.5 55.5zM1272 51v1024q0 51 51 51h143q51 0 52 -51v-1024q0 -51 -52 -51h-143q-51 0 -51 51z" />
<glyph unicode="&#xfb04;" horiz-adv-x="1595" d="M16 946v129q0 51 52 51h86v21q0 129 78.5 208t207.5 79h84q51 0 51 -52v-129q0 -51 -51 -51h-84q-41 0 -41 -41v-35h125q51 0 51 -51v-129q0 -51 -51 -51h-125v-844q0 -51 -51 -51h-143q-51 0 -51 51v844h-86q-52 0 -52 51zM610 946v129q0 51 52 51h86v21q0 129 78.5 208 t207.5 79h84q51 0 51 -52v-129q0 -51 -51 -51h-84q-41 0 -41 -41v-35h125q51 0 51 -51v-129q0 -51 -51 -51h-125v-844q0 -51 -51 -51h-143q-51 0 -51 51v844h-86q-52 0 -52 51zM1268 51v1331q0 51 51 52h143q51 0 51 -52v-1331q0 -51 -51 -51h-143q-51 0 -51 51z" />
<glyph horiz-adv-x="0" />
<glyph horiz-adv-x="682" />
<glyph unicode=" "  horiz-adv-x="430" />
<glyph unicode="&#x09;" horiz-adv-x="430" />
<glyph unicode="&#xa0;" horiz-adv-x="430" />
<glyph unicode="!" horiz-adv-x="466" d="M90 76v147q0 35 21.5 56.5t56.5 21.5h133q35 0 55.5 -21.5t20.5 -56.5v-147q0 -35 -20.5 -55.5t-55.5 -20.5h-133q-35 0 -56.5 20.5t-21.5 55.5zM98 1356q0 35 21.5 56.5t56.5 21.5h117q35 0 56.5 -21.5t19.5 -56.5l-19 -838q0 -35 -22.5 -56.5t-57.5 -21.5h-73 q-76 0 -80 78z" />
<glyph unicode="&#x22;" horiz-adv-x="626" d="M76 1397q-2 16 9 26.5t28 10.5h129q37 0 37 -37l-11 -404q0 -37 -39 -37h-106q-35 0 -39 37zM348 1397q0 37 37 37h129q37 0 37 -37l-10 -404q0 -37 -37 -37h-107q-39 0 -39 37z" />
<glyph unicode="#" horiz-adv-x="1247" d="M47 375v102q0 51 51 51h170l66 377h-133q-51 0 -51 51v103q0 51 51 51h170l47 272q10 51 61 52h105q49 0 43 -52l-49 -272h229l49 272q10 51 59 52h107q51 0 41 -52l-47 -272h133q51 0 51 -51v-103q0 -51 -51 -51h-170l-68 -377h136q51 0 51 -51v-102q0 -51 -51 -51h-170 l-50 -273q-10 -51 -59 -51h-106q-51 0 -41 51l47 273h-228l-49 -273q-10 -51 -59 -51h-107q-51 0 -41 51l47 273h-133q-51 0 -51 51zM475 528h230l67 377h-231z" />
<glyph unicode="$" horiz-adv-x="868" d="M39 313v113q0 51 51 51h158q51 0 51 -51v-123q0 -25 15.5 -40t39.5 -15h152q25 0 40 15.5t15 39.5v123q0 25 -18 39l-373 328q-47 43 -77 107.5t-30 127.5v90q0 131 74 219t199 105v137q0 51 51 51h102q51 0 52 -51v-137q127 -14 203.5 -101.5t76.5 -222.5v-110 q0 -51 -51 -52h-158q-51 0 -51 52v122q0 25 -15.5 40.5t-39.5 15.5h-129q-53 0 -53 -56v-102q0 -25 18 -41l373 -328q47 -41 75.5 -105.5t28.5 -127.5v-113q0 -135 -75.5 -222t-202.5 -103v-135q0 -51 -52 -52h-102q-51 1 -51 52v135q-135 10 -216 98t-81 227z" />
<glyph unicode="%" horiz-adv-x="1652" d="M76 942v211q0 131 78.5 212t210.5 81h30q131 0 212 -81t81 -212v-211q0 -131 -80 -212t-213 -81h-30q-131 0 -210 80t-79 213zM276 920q0 -29 19.5 -47.5t50.5 -18.5h72q29 0 47 18.5t18 47.5v256q0 29 -18.5 47t-46.5 18h-72q-31 0 -50.5 -18t-19.5 -47v-256zM285 123 l915 1304q12 18 29 19q8 0 20 -8l107 -76q33 -23 10 -53l-913 -1303q-10 -18 -29 -18q-14 0 -23 8l-106 76q-33 20 -10 51zM965 281v211q0 133 79.5 212.5t210.5 79.5h31q131 0 212 -80.5t81 -211.5v-211q0 -131 -81 -212t-212 -81h-31q-131 0 -210.5 81t-79.5 212z M1167 258q0 -29 18.5 -47t49.5 -18h74q27 0 46 18t19 47v256q0 29 -18.5 47.5t-46.5 18.5h-74q-31 0 -49.5 -18.5t-18.5 -47.5v-256z" />
<glyph unicode="&#x26;" horiz-adv-x="1044" d="M66 1032v86q0 150 90 240t237 90h144q147 0 237 -90t90 -240v-49q0 -51 -51 -51h-156q-51 0 -51 51v64q0 25 -15 40t-40 15h-172q-25 0 -40 -15.5t-15 -39.5v-181q0 -25 15 -40t40 -15h582q51 0 51 -51v-158q0 -51 -51 -51h-89v-322q0 -150 -90 -239.5t-237 -89.5h-146 q-147 0 -237 90t-90 239v185q0 172 116 266q-123 90 -122 266zM330 301q0 -25 15 -40t40 -15h172q25 0 40 15t15 40v336h-229q-23 0 -38 -15t-15 -40v-281z" />
<glyph unicode="'" horiz-adv-x="352" d="M76 1397q-2 16 9 26.5t28 10.5h129q37 0 37 -37l-11 -404q0 -37 -39 -37h-106q-35 0 -39 37z" />
<glyph unicode="(" horiz-adv-x="534" d="M82 96v1037q0 145 92 253l117 136q14 14 28 14q11 0 25 -10l127 -105q31 -25 6 -53l-86 -100q-49 -70 -49 -148v-1011q0 -78 49 -148l86 -100q25 -29 -6 -54l-127 -104q-14 -10 -25 -10q-14 0 -28 14l-117 135q-92 109 -92 254z" />
<glyph unicode=")" horiz-adv-x="534" d="M57 -139l84 100q51 68 52 148v1011q0 80 -52 148l-84 100q-25 28 4 53l129 105q10 10 24.5 10t29.5 -14l116 -136q92 -109 93 -253v-1037q0 -145 -93 -254l-116 -135q-14 -14 -28.5 -14t-25.5 10l-129 104q-29 25 -4 54z" />
<glyph unicode="*" horiz-adv-x="868" d="M33 1096l39 123q10 25 30 24q10 0 17 -2l235 -100l-20 256q-4 37 33 37h131q39 0 34 -37l-22 -256l235 102q6 2 17 2q20 0 31 -24l41 -123q14 -35 -23 -43l-254 -58l168 -194q25 -27 -6 -51l-105 -78q-16 -8 -22 -8q-18 0 -27 18l-133 221l-131 -221q-12 -16 -29 -16 q-10 0 -22 6l-105 76q-31 25 -6 51l168 194l-250 58q-35 6 -24 43z" />
<glyph unicode="+" horiz-adv-x="915" d="M102 666v129q1 51 52 51h188v188q0 51 51 51h129q51 0 51 -51v-188h189q51 0 51 -51v-129q0 -51 -51 -52h-189v-188q0 -51 -51 -51h-129q-51 0 -51 51v188h-188q-51 0 -52 52z" />
<glyph unicode="," horiz-adv-x="440" d="M82 -135l29 362q4 35 26.5 55.5t57.5 20.5h108q35 0 52.5 -20.5t9.5 -53.5l-82 -366q-14 -61 -78 -62h-66q-27 0 -43 17.5t-14 46.5z" />
<glyph unicode="-" horiz-adv-x="573" d="M76 559v131q0 37 37 37h348q37 0 37 -37v-131q0 -37 -37 -37h-348q-37 0 -37 37z" />
<glyph unicode="." horiz-adv-x="436" d="M76 76v147q0 35 20.5 56.5t55.5 21.5h133q35 0 56 -21.5t21 -56.5v-147q0 -35 -21.5 -55.5t-55.5 -20.5h-133q-33 0 -54.5 20.5t-21.5 55.5z" />
<glyph unicode="/" horiz-adv-x="825" d="M2 -211l629 1722q10 25 33 25q4 0 8 -1t6 -1l123 -47q33 -14 22 -49l-628 -1721q-10 -25 -35 -24q-8 0 -13 2l-122 47q-33 14 -23 47z" />
<glyph unicode="0" horiz-adv-x="886" d="M45 356v721q0 166 101.5 267.5t267.5 101.5h61q166 0 267.5 -101.5t101.5 -267.5v-721q0 -166 -101.5 -267t-267.5 -101h-61q-166 0 -267.5 101t-101.5 267zM303 330q0 -37 22.5 -59.5t59.5 -22.5h117q37 0 59.5 22.5t22.5 59.5v774q0 37 -22.5 59.5t-59.5 22.5h-117 q-37 0 -59.5 -22.5t-22.5 -59.5v-774z" />
<glyph unicode="1" horiz-adv-x="675" d="M27 1104v162q0 49 49 69l241 80q51 18 99 19h59q51 0 51 -52v-1331q0 -51 -51 -51h-158q-51 0 -51 51v1086l-190 -66q-16 -4 -19 -4q-31 0 -30 37z" />
<glyph unicode="2" horiz-adv-x="856" d="M61 993v84q0 166 101.5 267.5t267.5 101.5h2q166 0 267.5 -101.5t101.5 -267.5v-211q0 -68 -33 -134t-88 -107l-326 -226q-27 -20 -26 -51v-88h422q51 0 51 -51v-158q0 -51 -51 -51h-629q-51 0 -51 51v305q-2 68 31.5 133.5t86.5 106.5l326 225q27 20 27 51v232 q0 37 -22.5 59.5t-59.5 22.5h-56q-37 0 -59 -22.5t-22 -59.5v-111q0 -51 -52 -51h-157q-51 0 -52 51z" />
<glyph unicode="3" horiz-adv-x="882" d="M47 1020v59q0 166 101.5 267.5t267.5 101.5h49q166 0 267.5 -101.5t101.5 -267.5v-94q0 -162 -134 -250q140 -90 140 -256v-123q0 -166 -101.5 -267t-267.5 -101h-45q-166 0 -267.5 101t-101.5 267v60q0 51 52 51h157q51 0 51 -51v-86q0 -37 22.5 -59.5t59.5 -22.5h99 q37 0 59.5 22.5t22.5 59.5v190q0 37 -22.5 59.5t-59.5 22.5h-105q-51 0 -51 51v158q0 51 51 51h92q39 0 63.5 22.5t24.5 59.5v162q0 37 -22.5 59.5t-58.5 22.5h-103q-37 0 -59.5 -22.5t-22.5 -59.5v-86q0 -51 -51 -51h-158q-51 0 -51 51z" />
<glyph unicode="4" horiz-adv-x="964" d="M25 295v76q0 47 18 98l377 917q20 47 72 48h178q51 0 30 -48l-360 -882h211v239q0 51 51 52h156q51 0 51 -52v-239h90q51 0 51 -51v-158q0 -51 -51 -51h-90v-193q0 -51 -51 -51h-156q-51 0 -51 51v193h-475q-51 0 -51 51z" />
<glyph unicode="5" horiz-adv-x="903" d="M57 356v72q0 39 39 39h185q37 0 36 -39v-98q0 -37 22.5 -59.5t59.5 -22.5h95q37 0 59 22.5t22 59.5v301q0 37 -23.5 59.5t-62.5 22.5h-311q-51 0 -51 51v618q0 51 51 52h543q37 0 37 -37v-185q0 -39 -37 -38h-334v-201h72q170 0 273.5 -101.5t103.5 -267.5v-248 q0 -166 -101.5 -267t-267.5 -101h-41q-166 0 -267.5 101t-101.5 267z" />
<glyph unicode="6" horiz-adv-x="915" d="M51 356v721q0 166 101.5 267.5t267.5 101.5h43q166 0 267 -101.5t101 -267.5v-2q0 -51 -51 -51h-157q-51 0 -52 51v29q0 37 -22.5 59.5t-59.5 22.5h-96q-37 0 -59.5 -22.5t-22.5 -59.5v-205q49 12 109 12h65q166 0 267.5 -101t101.5 -267v-187q0 -166 -101.5 -267 t-267.5 -101h-65q-166 0 -267.5 101t-101.5 267zM311 330q0 -37 22.5 -59.5t59.5 -22.5h119q37 0 59.5 22.5t22.5 59.5v239q0 37 -22.5 59.5t-59.5 22.5h-119q-35 0 -57.5 -18t-24.5 -51v-252z" />
<glyph unicode="7" horiz-adv-x="804" d="M20 1239v143q1 52 52 52h651q51 0 51 -52v-110q0 -51 -20 -98l-256 -599q-20 -47 -21 -98v-426q0 -51 -51 -51h-156q-51 0 -51 51v492q0 57 19 100l245 545h-411q-51 0 -52 51z" />
<glyph unicode="8" horiz-adv-x="888" d="M41 356v150q0 172 147 260q-125 88 -125 244v69q0 166 101.5 267.5t267.5 101.5h27q166 0 267 -101.5t101 -267.5v-69q0 -160 -125 -246q145 -84 146 -258v-150q0 -166 -101.5 -267t-267.5 -101h-69q-166 0 -267.5 101t-101.5 267zM301 315q0 -37 22.5 -59.5t59.5 -22.5 h123q37 0 59.5 23t22.5 59v232q0 37 -21.5 59.5t-56.5 22.5h-127q-37 0 -59.5 -22.5t-22.5 -59.5v-232zM324 969q0 -37 22.5 -59.5t59.5 -22.5h83q35 0 56.5 22.5t21.5 59.5v151q0 37 -22.5 59.5t-59.5 22.5h-79q-37 0 -59.5 -22.5t-22.5 -59.5v-151z" />
<glyph unicode="9" horiz-adv-x="901" d="M59 356v2q1 52 52 52h157q51 0 51 -52v-28q0 -37 23 -59.5t59 -22.5h107q37 0 59.5 22.5t22.5 59.5v215q-49 -12 -109 -13h-51q-166 0 -267.5 101.5t-101.5 267.5v176q0 166 101.5 267.5t267.5 101.5h51q166 0 267.5 -101.5t101.5 -267.5v-721q0 -166 -101.5 -267 t-267.5 -101h-53q-166 0 -267.5 101t-101.5 267zM322 874q0 -37 22.5 -59t58.5 -22h105q35 0 57.5 18t24.5 51v242q0 37 -22.5 59.5t-59.5 22.5h-105q-37 0 -59 -22.5t-22 -59.5v-230z" />
<glyph unicode=":" horiz-adv-x="444" d="M76 76v147q0 35 20.5 56.5t55.5 21.5h133q35 0 56 -21.5t21 -56.5v-147q0 -35 -21.5 -55.5t-55.5 -20.5h-133q-33 0 -54.5 20.5t-21.5 55.5zM82 903v148q0 35 20.5 55t55.5 20h135q35 0 55.5 -20.5t20.5 -54.5v-148q0 -35 -20.5 -56.5t-55.5 -21.5h-135q-35 0 -55.5 21.5 t-20.5 56.5z" />
<glyph unicode=";" horiz-adv-x="440" d="M80 903v148q0 35 21.5 55t54.5 20h133q35 0 56.5 -20.5t21.5 -54.5v-148q0 -35 -21.5 -56.5t-56.5 -21.5h-133q-35 0 -55.5 21.5t-20.5 56.5zM82 -135l29 362q4 35 26.5 55.5t57.5 20.5h108q35 0 52.5 -20.5t9.5 -53.5l-82 -366q-14 -61 -78 -62h-66q-27 0 -43 17.5 t-14 46.5z" />
<glyph unicode="&#x3c;" horiz-adv-x="915" d="M102 717q0 53 45 76l527 301q10 8 26 8q29 0 43 -27l62 -112q24 -47 -19 -70l-309 -176l309 -176q45 -25 19 -70l-62 -113q-14 -27 -43 -26q-16 0 -26 8l-527 301q-45 23 -45 76z" />
<glyph unicode="=" horiz-adv-x="915" d="M102 496v129q0 51 52 51h608q51 0 51 -51v-129q0 -51 -51 -52h-608q-52 1 -52 52zM102 836v131q0 51 52 51h608q51 0 51 -51v-131q0 -51 -51 -52h-608q-52 1 -52 52z" />
<glyph unicode="&#x3e;" horiz-adv-x="915" d="M111 471q-27 45 16 70l311 176l-311 176q-43 25 -16 70l61 112q16 27 43 27q16 0 27 -8l526 -301q45 -25 45 -76t-45 -76l-526 -301q-10 -8 -27 -8q-29 0 -43 26z" />
<glyph unicode="?" horiz-adv-x="829" d="M41 1001v117q0 147 92 237.5t240 90.5h59q147 0 237.5 -90.5t90.5 -237.5v-235q0 -63 -30 -129t-77 -107l-100 -80q-20 -10 -25 -37l-6 -38q-4 -51 -55 -52h-129q-49 0 -53 52l-4 30q-6 143 98 236l102 84q20 14 21 39v249q0 25 -15.5 40.5t-40.5 15.5h-88 q-25 0 -41 -15.5t-16 -40.5v-129q0 -51 -51 -51h-158q-51 0 -51 51zM260 76v147q0 35 20.5 56.5t55.5 21.5h135q35 0 55.5 -21.5t20.5 -56.5v-147q0 -35 -21.5 -55.5t-54.5 -20.5h-135q-33 0 -54.5 20.5t-21.5 55.5z" />
<glyph unicode="@" horiz-adv-x="1509" d="M72 362v410q0 236 144 380t382 144h313q238 0 382.5 -144t144.5 -380v-364q0 -133 -79 -215t-206 -82h-18q-162 0 -236 133q-156 -111 -278 -111q-100 0 -172 82t-72 211v283q0 127 71.5 208.5t172 81.5t241.5 -84v11q0 51 51 51h144q51 0 51 -51v-520q0 -35 14.5 -56.5 t36.5 -21.5h21q25 0 39 21.5t14 56.5v366q0 143 -88 231.5t-234 88.5h-313q-145 0 -233.5 -88.5t-88.5 -231.5v-410q0 -145 89.5 -233t232.5 -88h330q51 0 51 -51v-103q0 -51 -51 -51h-330q-238 0 -382 145.5t-144 380.5zM623 422q0 -57 63 -57q55 0 176 100v205 q-125 98 -176 98q-63 0 -63 -57v-289z" />
<glyph unicode="A" horiz-adv-x="942" d="M12 49l344 1335q10 49 64 50h102q49 0 64 -50l344 -1335q2 -8 2 -15q0 -34 -41 -34h-166q-51 0 -61 49l-37 156h-314l-34 -156q-14 -49 -64 -49h-164q-23 0 -34 14.5t-5 34.5zM375 465h190l-78 334q-14 66 -14 155h-4q0 -80 -16 -155z" />
<glyph unicode="B" horiz-adv-x="917" d="M92 51v1331q0 51 51 52h367q147 0 237.5 -90.5t90.5 -237.5v-121q0 -160 -103 -252q141 -88 142 -280v-125q0 -147 -90.5 -237.5t-237.5 -90.5h-406q-51 0 -51 51zM352 260h211q53 0 53 53v222q0 53 -53 53h-211v-328zM352 850h172q55 0 56 53v217q0 53 -56 54h-172v-324 z" />
<glyph unicode="C" horiz-adv-x="921" d="M72 315v803q0 147 90 237.5t237 90.5h123q147 0 237.5 -90t90.5 -238v-110q0 -51 -51 -52h-158q-51 0 -51 52v122q0 55 -53 56h-152q-53 0 -53 -56v-827q0 -55 53 -55h152q53 0 53 55v123q0 51 51 51h158q51 0 51 -51v-111q0 -147 -90 -237t-238 -90h-123q-147 0 -237 90 t-90 237z" />
<glyph unicode="D" horiz-adv-x="925" d="M92 51v1331q0 51 51 52h383q147 0 237.5 -90.5t90.5 -237.5v-778q0 -147 -90 -237.5t-238 -90.5h-383q-51 0 -51 51zM352 260h187q55 0 55 53v807q0 54 -55 54h-187v-914z" />
<glyph unicode="E" horiz-adv-x="753" d="M92 51v1331q0 51 51 52h519q51 0 51 -52v-157q0 -51 -51 -51h-310v-394h215q51 0 51 -51v-158q0 -51 -51 -51h-215v-260h310q51 0 51 -51v-158q0 -51 -51 -51h-519q-51 0 -51 51z" />
<glyph unicode="F" horiz-adv-x="743" d="M92 51v1331q0 51 51 52h519q51 0 51 -52v-157q0 -51 -51 -51h-310v-394h215q51 0 51 -51v-158q0 -51 -51 -51h-215v-469q0 -51 -51 -51h-158q-51 0 -51 51z" />
<glyph unicode="G" horiz-adv-x="907" d="M72 315v803q0 147 90 237.5t237 90.5h129q147 0 237.5 -90t90.5 -238v-110q0 -51 -51 -52h-156q-51 0 -51 52v122q0 25 -15.5 40.5t-39.5 15.5h-158q-53 0 -53 -56v-827q0 -55 53 -55h158q25 0 40 15.5t15 39.5v232h-106q-52 0 -52 51v155q0 51 52 52h313q51 0 51 -52 v-426q0 -147 -90 -237t-238 -90h-129q-147 0 -237 90t-90 237z" />
<glyph unicode="H" horiz-adv-x="946" d="M92 51v1331q0 51 51 52h158q51 0 51 -52v-602h242v602q0 51 51 52h158q51 0 51 -52v-1331q0 -51 -51 -51h-158q-51 0 -51 51v469h-242v-469q0 -51 -51 -51h-158q-51 0 -51 51z" />
<glyph unicode="I" horiz-adv-x="634" d="M57 51v144q0 51 52 51h79v942h-79q-51 0 -52 51v143q0 51 52 52h417q51 0 52 -52v-143q0 -51 -52 -51h-80v-942h80q51 0 52 -51v-144q0 -51 -52 -51h-417q-52 0 -52 51z" />
<glyph unicode="J" horiz-adv-x="819" d="M25 315v74q0 51 51 51h155q51 0 52 -51v-86q0 -25 15 -40t40 -15h98q25 0 40.5 15.5t15.5 39.5v885h-140q-51 0 -51 51v143q0 51 51 52h348q51 0 52 -52v-1067q0 -147 -90.5 -237t-237.5 -90h-72q-147 0 -237 90t-90 237z" />
<glyph unicode="K" horiz-adv-x="917" d="M92 51v1331q0 51 51 52h158q51 0 51 -52v-479l219 483q23 48 74 48h184q37 0 37 -25q0 -10 -6 -23l-289 -632l328 -707q6 -14 6 -23q0 -24 -35 -24h-186q-51 0 -72 47l-260 559v-555q0 -51 -51 -51h-158q-51 0 -51 51z" />
<glyph unicode="L" horiz-adv-x="720" d="M92 51v1331q0 51 51 52h158q51 0 51 -52v-1120h287q51 0 51 -51v-160q0 -51 -51 -51h-496q-51 0 -51 51z" />
<glyph unicode="M" horiz-adv-x="1159" d="M92 51v1331q0 51 51 52h185q49 0 67 -50l162 -516q20 -63 21 -153h4q0 82 22 153l162 516q14 49 65 50h185q51 0 51 -52v-1331q0 -51 -51 -51h-144q-51 0 -51 51v713q0 66 17 156l-4 2q-12 -66 -35 -152l-129 -438q-14 -47 -66 -47h-47q-53 0 -68 47l-129 438 q-25 92 -32 152l-4 -2q14 -105 14 -156v-713q0 -51 -51 -51h-144q-51 0 -51 51z" />
<glyph unicode="N" horiz-adv-x="950" d="M92 51v1331q0 51 51 52h103q51 0 71 -48l252 -595q29 -68 43 -150l4 2q-16 90 -16 154v585q0 51 51 52h156q51 0 51 -52v-1331q0 -51 -51 -51h-102q-53 0 -70 47l-254 584q-25 70 -43 151l-4 -2q18 -81 18 -155v-574q0 -51 -51 -51h-158q-51 0 -51 51z" />
<glyph unicode="O" horiz-adv-x="952" d="M72 315v803q0 147 90 237.5t237 90.5h154q147 0 237.5 -90t90.5 -238v-803q0 -147 -90.5 -237t-237.5 -90h-154q-147 0 -237 90t-90 237zM332 303q0 -55 53 -55h182q53 0 54 55v827q0 55 -54 56h-182q-53 -1 -53 -56v-827z" />
<glyph unicode="P" horiz-adv-x="864" d="M92 51v1331q0 51 51 52h377q147 0 237.5 -90.5t90.5 -237.5v-238q0 -147 -90.5 -237t-237.5 -90h-168v-490q0 -51 -51 -51h-158q-51 0 -51 51zM352 801h180q25 0 40.5 15t15.5 40v264q-1 54 -56 54h-180v-373z" />
<glyph unicode="Q" horiz-adv-x="952" d="M72 330v788q0 147 90 237.5t237 90.5h154q147 0 237.5 -90t90.5 -238v-788q0 -131 -72 -218t-195 -106v-6q0 -41 41 -41h80q51 0 51 -51v-131q0 -51 -51 -51h-80q-127 0 -204.5 75.5t-81.5 202.5q-135 10 -216 98t-81 228zM332 315q0 -53 53 -53h182q53 0 54 53v815 q0 55 -54 56h-182q-53 -1 -53 -56v-815z" />
<glyph unicode="R" horiz-adv-x="911" d="M92 51v1331q0 51 51 52h377q147 0 237.5 -90.5t90.5 -237.5v-250q0 -176 -127 -268l141 -539q6 -23 -4 -36t-33 -13h-166q-49 0 -63 49l-123 479h-121v-477q0 -51 -51 -51h-158q-51 0 -51 51zM352 786h180q25 0 40.5 15.5t15.5 40.5v278q-1 54 -56 54h-180v-388z" />
<glyph unicode="S" horiz-adv-x="868" d="M39 313v113q0 51 51 51h158q51 0 51 -51v-123q0 -25 15.5 -40t39.5 -15h152q25 0 40 15.5t15 39.5v123q0 25 -18 39l-373 328q-47 43 -77 107.5t-30 127.5v90q0 147 90.5 237.5t237.5 90.5h103q147 0 237 -90t90 -238v-110q0 -51 -51 -52h-158q-51 0 -51 52v122 q0 25 -15.5 40.5t-39.5 15.5h-129q-53 0 -53 -56v-102q0 -25 18 -41l373 -328q47 -41 75.5 -105.5t28.5 -127.5v-113q0 -147 -90 -237t-237 -90h-125q-147 0 -237.5 90t-90.5 237z" />
<glyph unicode="T" horiz-adv-x="792" d="M20 1225v157q0 51 52 52h649q51 -1 51 -52v-157q0 -51 -51 -51h-195v-1123q0 -51 -51 -51h-158q-51 0 -51 51v1123h-194q-51 0 -52 51z" />
<glyph unicode="U" horiz-adv-x="927" d="M72 315v1067q0 51 51 52h158q51 0 51 -52v-1079q0 -55 53 -55h158q25 0 40 15.5t15 39.5v1079q0 52 51 52h156q51 0 51 -52v-1067q0 -147 -90 -237t-238 -90h-129q-147 0 -237 90t-90 237z" />
<glyph unicode="V" horiz-adv-x="915" d="M12 1384q-6 20 5.5 35t33.5 15h168q51 0 62 -50l159 -749q14 -63 15 -156h4q0 92 14 156l160 749q10 50 63 50h168q41 0 41 -34q0 -7 -2 -16l-332 -1335q-10 -49 -63 -49h-102q-49 0 -64 49z" />
<glyph unicode="W" horiz-adv-x="1275" d="M12 1382q-2 8 -2 15q0 36 43 37h162q23 0 40 -14.5t19 -37.5l101 -698q10 -76 10 -156h4q0 96 10 156l117 698q10 51 62 52h122q23 0 40.5 -14.5t19.5 -37.5l119 -698q10 -78 10 -156h4q0 98 10 156l98 698q10 51 60 52h164q43 0 43 -36q0 -7 -2 -16l-258 -1331 q-10 -51 -60 -51h-108q-51 0 -62 51l-125 656q-12 57 -12 155h-4q0 -84 -12 -155l-127 -656q-10 -51 -60 -51h-108q-51 0 -62 51z" />
<glyph unicode="X" horiz-adv-x="878" d="M20 47l277 701l-250 638q-4 12 -4 20q0 27 37 28h178q49 0 70 -48l84 -235q24 -63 24 -145v-7h4q0 82 27 152l84 235q21 48 70 48h178q36 0 36 -26q0 -9 -4 -22l-249 -638l276 -701q4 -12 4 -20q0 -27 -37 -27h-178q-49 0 -69 47l-111 297q-27 74 -27 152h-4 q0 -84 -24 -152l-111 -297q-20 -47 -70 -47h-178q-37 0 -37 27q0 8 4 20z" />
<glyph unicode="Y" horiz-adv-x="862" d="M14 1384q-4 12 -4 21q0 28 37 29h168q51 0 68 -50l123 -385q22 -65 22 -144v-7h4q0 86 25 151l123 385q16 49 67 50h166q39 0 39 -29q0 -9 -4 -21l-287 -845v-488q0 -51 -51 -51h-158q-51 0 -51 51v488z" />
<glyph unicode="Z" horiz-adv-x="763" d="M37 51v158q0 51 20 98l387 867h-344q-51 0 -51 51v157q0 51 51 52h576q51 0 51 -52v-157q0 -51 -20 -99l-385 -866h340q51 0 51 -51v-158q0 -51 -51 -51h-574q-51 0 -51 51z" />
<glyph unicode="[" horiz-adv-x="512" d="M82 -270v1769q0 37 37 37h336q37 0 37 -37v-158q0 -37 -37 -36h-113v-1381h113q37 0 37 -37v-157q0 -37 -37 -37h-336q-37 0 -37 37z" />
<glyph unicode="\" horiz-adv-x="825" d="M2 1438q-10 35 23 49l122 47q2 0 6.5 1t6.5 1q25 0 35 -25l628 -1722q10 -33 -22 -47l-123 -47q-4 -2 -12 -2q-25 0 -35 24z" />
<glyph unicode="]" horiz-adv-x="512" d="M20 -113q0 37 37 37h113v1381h-113q-37 0 -37 36v158q0 37 37 37h336q37 0 37 -37v-1769q0 -37 -37 -37h-336q-37 0 -37 37v157z" />
<glyph unicode="^" horiz-adv-x="915" d="M102.5 1204q-0.5 21 16.5 35l223 158q37 37 88 37h55q51 0 88 -37l222 -156q16 -14 16 -35.5t-16 -36.5l-88 -94q-20 -16 -39 -16q-17 0 -37 14l-174 115l-176 -117q-18 -14 -33 -14q-18 0 -39 16l-92 94q-14 16 -14.5 37z" />
<glyph unicode="_" horiz-adv-x="430" d="M0 -47h430v-260h-430v260z" />
<glyph unicode="`" horiz-adv-x="417" d="M31 1618q-27 27 10 27h215q39 0 55 -33l80 -158q18 -35 -20 -35h-97q-37 0 -63 27z" />
<glyph unicode="a" d="M68 272v150q0 133 84 213t231 80q70 0 164 -8v116q0 43 -10.5 62.5t-44.5 19.5h-113q-35 0 -45 -19.5t-10 -62.5q0 -51 -52 -51h-143q-51 0 -51 51v29q0 129 79 208t208 79h141q129 0 208 -79t79 -208v-801q0 -51 -52 -51h-143q-51 0 -51 51v12q-133 -88 -233.5 -88 t-173 84t-72.5 213zM313 270q0 -61 64 -61q53 0 170 100v185q-123 12 -129 12q-45 0 -75 -21.5t-30 -60.5v-154z" />
<glyph unicode="b" d="M82 51v1331q0 52 51 52h143q51 0 52 -52v-317q145 86 239 86q100 0 173 -83t73 -210v-590q0 -127 -72.5 -210t-173.5 -83q-94 0 -239 86v-10q0 -51 -52 -51h-143q-51 0 -51 51zM328 307q119 -98 176 -98q63 0 63 57v594q0 57 -63 58q-57 -1 -176 -99v-512z" />
<glyph unicode="c" horiz-adv-x="823" d="M61 274v578q0 129 79 208t208 79h139q129 0 208 -79t79 -208v-98q0 -51 -51 -52h-143q-51 0 -52 52v110q0 41 -41 41h-139q-41 0 -41 -41v-602q0 -41 41 -41h139q41 0 41 41v111q0 51 52 51h143q51 0 51 -51v-99q0 -129 -79 -207.5t-208 -78.5h-139q-129 0 -208 78.5 t-79 207.5z" />
<glyph unicode="d" d="M61 268v590q0 127 72 210t172 83q96 0 242 -86v317q0 52 51 52h143q51 0 52 -52v-1331q0 -51 -52 -51h-143q-51 0 -51 51v10q-145 -86 -242 -86q-100 0 -172 83t-72 210zM307 266q0 -57 64 -57q51 0 176 98v512q-125 98 -176 99q-63 0 -64 -58v-594z" />
<glyph unicode="e" horiz-adv-x="856" d="M61 274v578q0 129 79 208t208 79h154q129 0 207.5 -80t78.5 -209v-334q0 -51 -51 -51h-430v-205q0 -39 41 -39h154q41 0 41 41v55q0 51 51 52h143q51 0 51 -52v-43q0 -129 -78.5 -207.5t-207.5 -78.5h-154q-129 0 -208 78.5t-79 207.5zM307 696h236v168q0 41 -41 41h-154 q-41 0 -41 -41v-168z" />
<glyph unicode="f" horiz-adv-x="593" d="M16 946v129q0 51 52 51h86v21q0 129 78.5 208t207.5 79h84q51 0 51 -52v-129q0 -51 -51 -51h-84q-41 0 -41 -41v-35h125q51 0 51 -51v-129q0 -51 -51 -51h-125v-844q0 -51 -51 -51h-143q-51 0 -51 51v844h-86q-52 0 -52 51z" />
<glyph unicode="g" d="M61 268v590q0 127 72 210t172 83q97 0 242 -86v10q0 51 51 51h143q51 0 52 -51l-5 -1081q0 -96 -37.5 -164t-102 -100.5t-133.5 -47t-150 -14.5q-37 0 -150 10q-104 18 -104 68v129q0 41 53 41q25 0 39 -4q111 -8 166 -8q174 0 174 116v39q-141 -84 -238 -84 q-100 0 -172 83t-72 210zM307 266q0 -57 64 -57q53 0 174 96v514q-113 98 -174 99q-63 0 -64 -58v-594z" />
<glyph unicode="h" horiz-adv-x="876" d="M82 68v1314q0 52 51 52h143q51 0 52 -52v-315q131 84 223 84q100 0 172 -83t72 -210v-807q0 -51 -52 -51h-143q-51 0 -51 51v809q0 57 -62 58q-55 0 -159 -95v-755q0 -68 -52 -68h-143q-51 0 -51 68z" />
<glyph unicode="i" horiz-adv-x="413" d="M68 1276v106q0 35 21.5 56.5t55.5 21.5h123q35 0 55.5 -21.5t20.5 -56.5v-106q0 -35 -20.5 -55.5t-55.5 -20.5h-123q-35 0 -56 20.5t-21 55.5zM84 51v1024q0 51 51 51h144q51 0 51 -51v-1024q0 -51 -51 -51h-144q-51 0 -51 51z" />
<glyph unicode="j" horiz-adv-x="417" d="M-82 -127q0 51 51 51h84q41 0 41 41v1110q0 51 51 51h144q51 0 51 -51v-1095q0 -129 -79 -208t-208 -79h-84q-51 0 -51 51v129zM82 1274v108q0 35 20.5 55.5t55.5 20.5h123q35 0 56 -20.5t21 -55.5v-108q0 -35 -21.5 -55.5t-55.5 -20.5h-123q-35 0 -55.5 21.5t-20.5 54.5 z" />
<glyph unicode="k" horiz-adv-x="770" d="M82 51v1331q0 51 51 52h143q51 0 52 -52v-677l155 374q20 47 72 47h152q23 0 32.5 -13.5t1.5 -33.5l-209 -504l216 -528q6 -13 6 -23q0 -24 -37 -24h-154q-53 0 -74 47l-161 399v-395q0 -51 -52 -51h-143q-51 0 -51 51z" />
<glyph unicode="l" horiz-adv-x="409" d="M82 51v1331q0 51 51 52h143q51 0 52 -52v-1331q0 -51 -52 -51h-143q-51 0 -51 51z" />
<glyph unicode="m" horiz-adv-x="1331" d="M82 51v1024q0 51 51 51h143q47 0 52 -47q125 72 217 72q117 0 188 -107q160 106 273 107q100 0 171.5 -83t71.5 -210v-807q0 -51 -51 -51h-143q-51 0 -51 51v809q0 57 -64 58q-51 0 -152 -78v-789q0 -51 -51 -51h-143q-51 0 -51 51v809q0 57 -64 58q-51 0 -151 -76v-791 q0 -51 -52 -51h-143q-51 0 -51 51z" />
<glyph unicode="n" horiz-adv-x="876" d="M82 51v1024q0 51 51 51h143q51 0 52 -51v-8q131 84 223 84q100 0 172 -83t72 -210v-807q0 -51 -52 -51h-143q-51 0 -51 51v809q0 57 -62 58q-55 0 -159 -95v-772q0 -51 -52 -51h-143q-51 0 -51 51z" />
<glyph unicode="o" horiz-adv-x="870" d="M61 274v578q0 129 79 208t208 79h174q129 0 208 -79t79 -208v-578q0 -129 -79 -207.5t-208 -78.5h-174q-129 0 -208 78.5t-79 207.5zM307 262q0 -41 41 -41h174q41 0 41 41v602q0 41 -41 41h-174q-41 0 -41 -41v-602z" />
<glyph unicode="p" d="M82 -256v1331q0 51 51 51h143q51 0 52 -51v-10q145 86 239 86q100 0 173 -83t73 -210v-590q0 -127 -72.5 -210t-173.5 -83q-94 0 -239 86v-317q-1 -51 -52 -51h-143q-51 0 -51 51zM328 307q119 -98 176 -98q63 0 63 57v594q0 57 -63 58q-57 -1 -176 -99v-512z" />
<glyph unicode="q" d="M61 268v590q0 127 72 210t172 83q96 0 242 -86v10q0 51 51 51h143q51 0 52 -51v-1331q-1 -51 -52 -51h-143q-51 0 -51 51v317q-145 -86 -242 -86q-100 0 -172 83t-72 210zM307 266q0 -57 64 -57q51 0 176 98v512q-125 98 -176 99q-63 0 -64 -58v-594z" />
<glyph unicode="r" horiz-adv-x="573" d="M82 51v1024q0 51 51 51h143q51 0 52 -51v-10q90 59 180 80q4 2 10 2q41 0 41 -47l2 -174q0 -37 -37 -37q-8 0 -22 2q-57 0 -174 -96v-744q0 -51 -52 -51h-143q-51 0 -51 51z" />
<glyph unicode="s" horiz-adv-x="849" d="M61 274v99q0 51 52 51h143q51 0 51 -51v-70q0 -82 55 -82h125q55 0 56 58v22q0 20 -15 35l-364 276q-92 72 -92 189v51q0 127 78.5 207t207.5 80h134q129 0 207.5 -79t78.5 -208v-98q0 -51 -51 -52h-143q-51 0 -52 52v69q0 82 -55 82h-104q-55 0 -56 -57v-19 q0 -20 15 -34l364 -279q92 -71 92 -188v-54q0 -127 -78.5 -206.5t-207.5 -79.5h-154q-129 0 -208 78.5t-79 207.5z" />
<glyph unicode="t" horiz-adv-x="606" d="M14 946v129q0 51 52 51h84v154q0 51 51 51h143q51 0 51 -51v-154h127q51 0 51 -51v-129q0 -51 -51 -51h-127v-633q0 -41 41 -41h86q51 0 51 -51v-131q0 -51 -51 -51h-86q-129 0 -207.5 78.5t-78.5 207.5v621h-84q-52 0 -52 51z" />
<glyph unicode="u" horiz-adv-x="907" d="M82 268v807q0 51 51 51h143q51 0 52 -53v-807q0 -57 63 -57q68 0 189 121v745q0 51 51 51h143q51 0 51 -51v-1024q0 -51 -51 -51h-143q-51 0 -51 51v27q-141 -102 -254 -103q-100 0 -172 83t-72 210z" />
<glyph unicode="v" horiz-adv-x="782" d="M18 1077q-2 8 -2 15q0 34 41 34h152q51 0 61 -49l103 -522q14 -63 14 -152h4q1 89 15 152l104 522q10 49 61 49h152q23 0 34 -14t5 -35l-246 -1028q-10 -49 -63 -49h-129q-51 0 -62 51z" />
<glyph unicode="w" horiz-adv-x="1236" d="M18 1077q-4 23 7.5 36t33.5 13h152q49 0 59 -51l99 -563q10 -53 10 -150h4q0 88 14 154l97 559q2 23 19 37t40 14h131q23 0 40 -14t19 -37l97 -559q10 -59 10 -154h4q0 90 14 150l99 563q2 23 19.5 37t39.5 14h152q23 0 34 -13t7 -36l-238 -1028q-14 -49 -63 -49h-130 q-23 0 -40 14.5t-19 36.5l-96 527q-12 66 -12 151h-5q0 -92 -14 -151l-96 -529q-10 -49 -62 -49h-129q-51 0 -61 49z" />
<glyph unicode="x" horiz-adv-x="788" d="M14 47l250 528l-248 506q-10 20 -0.5 32.5t31.5 12.5h156q47 0 71 -45l101 -196q14 -29 14 -72h4q1 43 15 72l94 194q23 47 71 47h152q37 0 37 -24q0 -10 -6 -23l-236 -501l256 -533q6 -13 6 -23q0 -22 -34 -22h-152q-51 0 -76 45l-112 225q-14 27 -15 70h-4 q0 -43 -14 -70l-105 -223q-25 -47 -71 -47h-154q-37 0 -37 24q0 10 6 23z" />
<glyph unicode="y" horiz-adv-x="808" d="M18 1077q-2 8 -2 15q0 34 41 34h152q49 0 63 -49l113 -522q14 -63 14 -152h4q0 80 17 152l117 522q14 49 63 49h152q23 0 33 -13t3 -36l-335 -1335q-14 -49 -64 -49h-133q-23 0 -34 14.5t-5 34.5l70 258z" />
<glyph unicode="z" horiz-adv-x="692" d="M20 51v129q0 51 25 96l367 619h-326q-51 0 -51 51v129q0 51 51 51h553q51 0 51 -51v-129q0 -51 -24 -96l-369 -619h338q51 0 51 -51v-129q0 -51 -51 -51h-563q-51 0 -52 51z" />
<glyph unicode="{" horiz-adv-x="604" d="M16 537v155q0 51 52 51h22q25 0 41 15.5t16 40.5v409q0 147 89.5 237.5t236.5 90.5h59q51 0 52 -51v-129q0 -51 -52 -51h-73q-51 -1 -51 -56v-368q0 -176 -123 -267q119 -96 118 -266v-368q0 -55 52 -56h77q51 0 52 -51v-129q0 -51 -52 -51h-63q-147 0 -236.5 90 t-89.5 237v410q0 25 -15 40t-38 15h-22q-51 0 -52 52z" />
<glyph unicode="|" horiz-adv-x="368" d="M82 -270v1769q0 37 37 37h131q37 0 37 -37v-1769q0 -37 -37 -37h-131q-37 0 -37 37z" />
<glyph unicode="}" horiz-adv-x="604" d="M20 -127q0 51 52 51h75q54 1 54 56v368q0 170 118 266q-123 88 -122 267v368q0 55 -52 56h-73q-51 0 -52 51v129q0 51 52 51h59q147 0 236.5 -90t89.5 -238v-409q0 -25 16 -40.5t41 -15.5h21q51 0 51 -51v-155q0 -51 -51 -52h-21q-23 0 -39 -15t-16 -40v-410 q0 -147 -88 -237t-236 -90h-63q-51 0 -52 51v129z" />
<glyph unicode="~" horiz-adv-x="915" d="M98 664v153q0 39 33 57l31 19q63 39 145 39q66 0 113 -23l119 -59q31 -14 75 -14q57 0 99 26l71 43q6 4 17 4q14 0 14 -22v-154q0 -41 -31 -57l-30 -19q-66 -41 -146 -41q-63 0 -112 25l-119 57q-37 16 -76 17q-57 0 -98 -27l-72 -43q-6 -4 -16 -4q-17 0 -17 23z" />
<glyph unicode="&#xa1;" horiz-adv-x="466" d="M90 903v148q0 35 21.5 55t56.5 20h133q35 0 55.5 -20.5t20.5 -54.5v-148q0 -35 -20.5 -56.5t-55.5 -21.5h-133q-35 0 -56.5 21.5t-21.5 56.5zM98 -229l19 837q4 78 80 78h73q35 0 57.5 -21.5t22.5 -56.5l19 -837q2 -35 -19.5 -56.5t-56.5 -21.5h-117q-35 0 -56.5 21.5 t-21.5 56.5z" />
<glyph unicode="&#xa2;" horiz-adv-x="823" d="M61 455v524q0 127 76 205t201 82v141q0 39 37 39h102q39 0 39 -39v-141q117 -10 187.5 -87t70.5 -200v-82q0 -51 -51 -51h-143q-51 0 -52 51v96q0 41 -41 41h-139q-41 0 -41 -41v-553q0 -41 41 -41h139q41 0 41 41v97q0 51 52 51h143q51 0 51 -51v-82q0 -123 -70.5 -200 t-187.5 -87v-141q0 -39 -39 -39h-102q-37 0 -37 39v141q-125 4 -201 82t-76 205z" />
<glyph unicode="&#xa3;" horiz-adv-x="1005" d="M68 51v158q0 51 51 51h98v281h-98q-51 0 -51 51v102q0 51 51 51h98v373q0 147 90 237.5t238 90.5h82q147 0 237 -90t90 -238v-110q0 -51 -51 -52h-155q-51 0 -52 52v122q0 25 -15 40.5t-40 15.5h-109q-25 0 -40 -15.5t-15 -40.5v-385h195q51 0 51 -51v-102q0 -51 -51 -51 h-195v-281h416q51 0 51 -51v-158q0 -51 -51 -51h-774q-51 0 -51 51z" />
<glyph unicode="&#xa4;" horiz-adv-x="1118" d="M63 311q-37 35 0 72l95 96q-66 111 -66 238q0 125 66 239l-92 93q-39 39 0 71l90 90q16 18 34.5 18.5t36.5 -18.5l95 -92q109 63 237 64q131 0 238 -66l94 94q18 18 37 19q16 0 35 -19l90 -90q39 -35 0 -71l-95 -95q66 -111 66 -237.5t-66 -237.5l97 -96q37 -37 0 -72 l-92 -90q-16 -18 -35 -18t-37 18l-94 94q-109 -63 -238 -63q-131 0 -237 65l-97 -96q-16 -16 -37 -16q-18 0 -34 16zM326 717q0 -96 68.5 -165t164.5 -69t165 69t69 165t-69 164.5t-165 68.5t-164.5 -68.5t-68.5 -164.5z" />
<glyph unicode="&#xa5;" horiz-adv-x="862" d="M14 1384q-16 49 33 50h168q51 0 68 -50l123 -385q23 -68 22 -151h4q0 86 25 151l123 385q16 49 67 50h166q51 0 35 -50l-258 -759h90q51 0 51 -52v-98q0 -51 -51 -51h-119v-62h119q51 0 51 -51v-100q0 -51 -51 -51h-119v-109q0 -51 -51 -51h-158q-51 0 -51 51v109h-119 q-51 0 -51 51v100q0 51 51 51h119v62h-119q-51 0 -51 51v98q0 51 51 52h90z" />
<glyph unicode="&#xa6;" horiz-adv-x="368" d="M82 -270v778h205v-778q0 -37 -37 -37h-131q-37 0 -37 37zM82 721v778q0 37 37 37h131q37 0 37 -37v-778h-205z" />
<glyph unicode="&#xa7;" horiz-adv-x="835" d="M72 195v69q0 51 51 51h143q51 0 51 -51v-43q0 -37 22.5 -59.5t59.5 -22.5h37q37 0 59.5 22.5t22.5 59.5v453q0 18 -22 37l-80 69q-29 20 -4 51l112 130q12 14 29 14q13 0 27 -10l79 -72q104 -96 105 -199v-499q0 -129 -79 -208t-208 -79h-119q-129 0 -207.5 79t-78.5 208 zM72 657v502q0 127 78.5 207t207.5 80h119q129 0 208 -79t79 -208v-69q0 -51 -51 -52h-144q-51 0 -51 52v40q0 37 -22.5 59.5t-59.5 22.5h-37q-37 0 -59.5 -22.5t-22.5 -59.5v-450q0 -16 21 -37l86 -78q33 -20 4 -49l-111 -129q-12 -14 -30 -14q-15 0 -25 10l-86 76 q-104 94 -104 198z" />
<glyph unicode="&#xa8;" horiz-adv-x="538" d="M20 1503v56q0 35 20.5 55t55.5 20h56q35 0 56 -20.5t21 -54.5v-56q0 -35 -21.5 -55.5t-55.5 -20.5h-56q-35 0 -55.5 21.5t-20.5 54.5zM309 1503v56q0 35 21.5 55t56.5 20h55q33 0 54.5 -20.5t21.5 -54.5v-56q0 -33 -21.5 -54.5t-54.5 -21.5h-55q-35 0 -56.5 20.5 t-21.5 55.5z" />
<glyph unicode="&#xa9;" horiz-adv-x="1591" d="M72 526v381q0 236 144 381.5t382 145.5h395q236 0 381.5 -145.5t145.5 -381.5v-381q0 -236 -145.5 -381t-381.5 -145h-395q-238 0 -382 145t-144 381zM276 526q0 -145 89.5 -233t232.5 -88h395q145 0 233.5 88t88.5 233v381q0 145 -88 233.5t-234 88.5h-395 q-143 0 -232.5 -88.5t-89.5 -233.5v-381zM440 559v315q0 129 79 208t208 79h139q129 0 208 -78.5t79 -208.5v-14q0 -51 -51 -51h-144q-51 0 -51 51v29q0 41 -41 41h-139q-41 0 -41 -41v-344q0 -41 41 -41h139q41 0 41 41v28q0 51 51 52h144q51 0 51 -52v-14q0 -129 -79 -208 t-208 -79h-139q-129 0 -208 79t-79 208z" />
<glyph unicode="&#xaa;" horiz-adv-x="567" d="M45 874v101q0 86 53.5 137t149.5 51q47 0 108 -4v80q0 53 -37 53h-73q-39 0 -39 -53v-4q0 -33 -31 -33h-92q-33 0 -33 33v20q0 82 51.5 133.5t135.5 51.5h90q82 0 132 -50.5t50 -134.5v-522q0 -33 -33 -33h-88q-33 0 -33 33v10q-82 -59 -153 -59q-66 0 -112 54t-46 136z M201 874q0 -23 14 -33t29 -10q45 0 112 68v123q-53 8 -86 8q-69 0 -69 -53v-103z" />
<glyph unicode="&#xab;" horiz-adv-x="983" d="M41 600v49q0 51 37 88l258 269q16 16 35 16q20 0 37 -16l73 -74q35 -37 0 -72l-225 -235l225 -236q35 -37 0 -72l-73 -73q-16 -16 -37 -17q-18 0 -35 17l-258 268q-37 37 -37 88zM461 600v49q0 49 35 88l260 269q14 16 37 16q20 0 34 -16l76 -74q35 -35 0 -72l-227 -235 l227 -236q35 -37 -2 -74l-72 -71q-16 -16 -36 -17q-23 0 -37 17l-260 268q-35 39 -35 88z" />
<glyph unicode="&#xac;" horiz-adv-x="915" d="M102 727v129q0 51 52 51h608q51 0 51 -51v-313q0 -51 -51 -51h-129q-51 0 -51 51v133h-428q-51 0 -52 51z" />
<glyph unicode="&#xad;" horiz-adv-x="573" d="M76 559v131q0 37 37 37h348q37 0 37 -37v-131q0 -37 -37 -37h-348q-37 0 -37 37z" />
<glyph unicode="&#xae;" horiz-adv-x="1591" d="M72 526v381q0 236 144 381.5t382 145.5h395q236 0 381.5 -145.5t145.5 -381.5v-381q0 -236 -145.5 -381t-381.5 -145h-395q-238 0 -382 145t-144 381zM276 526q0 -145 89.5 -233t232.5 -88h395q145 0 233.5 88t88.5 233v381q0 145 -88 233.5t-234 88.5h-395 q-143 0 -232.5 -88.5t-89.5 -233.5v-381zM489 315v803q0 45 48 45h319q131 0 210 -78.5t79 -207.5v-41q0 -147 -94 -224l100 -299q12 -43 -35 -43h-145q-44 0 -60 43l-80 234h-108v-232q0 -45 -47 -45h-139q-47 0 -48 45zM723 778h147q43 0 43 43v68q0 43 -43 43h-147v-154z " />
<glyph unicode="&#xaf;" horiz-adv-x="499" d="M20 1501v90q0 37 37 37h383q39 0 39 -37v-90q0 -37 -39 -37h-383q-37 0 -37 37z" />
<glyph unicode="&#xb0;" horiz-adv-x="669" d="M68 1192q0 109 78.5 187.5t187.5 78.5q111 0 188.5 -79t77.5 -187q0 -111 -78 -188.5t-188 -77.5q-109 0 -187.5 77.5t-78.5 188.5zM252 1192q0 -35 24.5 -59.5t57.5 -24.5q35 0 59.5 25.5t24.5 58.5t-24.5 57.5t-59.5 24.5t-58.5 -24.5t-23.5 -57.5z" />
<glyph unicode="&#xb1;" horiz-adv-x="915" d="M102 201v131q0 51 52 51h608q51 0 51 -51v-131q0 -51 -51 -51h-608q-52 0 -52 51zM102 754v131q0 51 52 51h188v186q0 51 51 52h129q51 0 51 -52v-186h189q51 0 51 -51v-131q0 -51 -51 -52h-189v-186q0 -51 -51 -51h-129q-51 0 -51 51v186h-188q-51 0 -52 52z" />
<glyph unicode="&#xb2;" horiz-adv-x="436" d="M29 1200v45q0 88 52 141.5t140 53.5t141.5 -53.5t53.5 -141.5v-98q0 -84 -68 -131l-153 -96q-12 -6 -13 -19v-35h201q29 0 29 -28v-90q0 -31 -29 -31h-322q-29 0 -28 31v159q0 82 63 129l158 94q10 6 10 23v109q0 29 -28 28h-27q-31 0 -31 -28v-62q0 -27 -31 -26h-90 q-29 0 -28 26z" />
<glyph unicode="&#xb3;" horiz-adv-x="448" d="M20 1219v26q0 88 53.5 142.5t141.5 54.5h23q90 0 143 -53.5t53 -143.5v-37q0 -78 -69 -129q72 -45 71 -127v-47q0 -86 -53 -140t-141 -54h-19q-88 0 -141 54t-53 140v29q0 31 28 31h90q31 0 31 -31v-45q0 -29 31 -29h47q31 0 31 29v86q0 31 -31 31h-49q-31 0 -31 30v90 q0 29 31 29h45q33 0 33 31v76q0 29 -31 28h-53q-31 0 -31 -28v-43q0 -29 -29 -29h-92q-29 0 -29 29z" />
<glyph unicode="&#xb4;" horiz-adv-x="415" d="M25 1454l79 158q20 33 58 33h213q39 0 12 -27l-180 -172q-31 -27 -66 -27h-96q-36 0 -20 35z" />
<glyph unicode="&#xb6;" horiz-adv-x="1169" d="M72 862v244q0 147 90 237.5t237 90.5h615q51 0 51 -52v-1638q0 -51 -51 -51h-158q-51 0 -51 51v1430h-84v-1430q0 -51 -51 -51h-158q-51 0 -51 51v791h-62q-147 0 -237 90t-90 237z" />
<glyph unicode="&#xb7;" horiz-adv-x="436" d="M76 643v148q0 33 21.5 54t54.5 21h133q35 0 56 -20.5t21 -54.5v-148q0 -35 -21.5 -55.5t-55.5 -20.5h-133q-33 0 -54.5 21.5t-21.5 54.5z" />
<glyph unicode="&#xb8;" horiz-adv-x="342" d="M20 -250q0 37 37 37h111q31 0 31 31v4q0 31 -31 31h-39q-35 0 -52.5 21.5t-8.5 55.5l18 84h135l-10 -53q49 0 80 -31t31 -82v-57q0 -51 -31 -82t-82 -31h-152q-37 0 -37 37v35z" />
<glyph unicode="&#xb9;" horiz-adv-x="344" d="M10 1257v93q0 29 27 41l115 32q22 11 57 11h35q29 0 28 -31v-655q0 -31 -28 -31h-94q-27 0 -27 31v514l-86 -23q-8 -4 -10 -4q-16 0 -17 22z" />
<glyph unicode="&#xba;" horiz-adv-x="565" d="M41 877v378q0 82 51 133.5t135 51.5h111q84 0 134 -50.5t50 -134.5v-378q0 -82 -51 -132.5t-133 -50.5h-111q-84 0 -135 50.5t-51 132.5zM197 868q0 -29 30 -28h111q29 0 29 28v398q0 27 -29 26h-111q-30 1 -30 -26v-398z" />
<glyph unicode="&#xbb;" horiz-adv-x="983" d="M80 389l227 236l-227 235q-35 37 0 72l74 74q16 16 36 16q18 0 35 -16l260 -269q35 -39 35 -88v-49q0 -49 -35 -88l-260 -268q-16 -16 -35 -17q-20 0 -36 17l-72 73q-37 33 -2 72zM500 315q-33 37 0 74l227 236l-227 235q-35 37 0 72l73 74q16 16 37 16t37 -16l258 -269 q37 -37 37 -88v-49q0 -51 -37 -88l-258 -268q-16 -16 -36.5 -16.5t-37.5 16.5z" />
<glyph unicode="&#xbc;" horiz-adv-x="1531" d="M78 1257v93q0 27 26 41l117 32q20 11 55 11h35q31 0 31 -31v-655q0 -31 -31 -31h-92q-29 0 -29 31v514l-86 -23q-8 -4 -10 -4q-16 0 -16 22zM186 37l1037 1483q12 16 30 16q8 0 21 -6l106 -76q29 -23 11 -53l-1035 -1483q-12 -18 -30 -18q-6 0 -23 8l-106 76 q-31 20 -11 53zM975 139v45q0 18 12 56l180 450q12 27 43 27h103q29 0 18 -27l-172 -430h80v98q0 31 29 31h94q27 0 27 -31v-98h41q31 0 30 -29v-92q1 -28 -30 -28h-41v-80q0 -31 -27 -31h-94q-29 0 -29 31v80h-233q-31 0 -31 28z" />
<glyph unicode="&#xbd;" horiz-adv-x="1470" d="M78 1257v93q0 27 26 41l117 32q20 11 55 11h35q31 0 31 -31v-655q0 -31 -31 -31h-92q-29 0 -29 31v514l-86 -23q-8 -4 -10 -4q-16 0 -16 22zM186 37l1037 1483q12 16 30 16q8 0 21 -6l106 -76q29 -23 11 -53l-1035 -1483q-12 -18 -30 -18q-6 0 -23 8l-106 76 q-31 20 -11 53zM995 483v45q0 88 52.5 141.5t140.5 53.5t141 -53.5t53 -141.5v-98q0 -84 -67 -131l-154 -96q-12 -6 -12 -19v-34h201q29 0 28 -29v-90q0 -31 -28 -31h-322q-29 0 -29 31v159q0 82 64 129l158 95q10 6 10 22v109q0 29 -29 28h-26q-31 0 -31 -28v-62 q0 -27 -31 -26h-90q-29 0 -29 26z" />
<glyph unicode="&#xbe;" horiz-adv-x="1636" d="M88 1219v26q0 90 54.5 143.5t142.5 53.5h22q88 0 141.5 -54.5t53.5 -142.5v-37q0 -78 -68 -129q70 -45 70 -127v-47q0 -86 -53.5 -140t-141.5 -54h-18q-88 0 -141.5 54t-53.5 140v29q0 31 31 31h90q29 0 29 -31v-45q0 -29 30 -29h50q29 0 28 29v86q0 31 -28 31h-52 q-29 0 -28 30v90q0 29 28 29h45q33 0 33 31v76q0 29 -30 28h-54q-31 0 -30 -28v-43q0 -29 -29 -29h-90q-31 0 -31 29zM291 37l1036 1483q12 16 31 16q8 0 20 -6l107 -76q29 -23 10 -53l-1034 -1483q-12 -18 -31 -18q-6 0 -22 8l-107 76q-30 20 -10 53zM1079 139v45 q0 18 13 56l180 450q14 27 43 27h102q29 0 19 -27l-172 -430h79v98q0 31 29 31h94q27 0 27 -31v-98h41q31 0 31 -29v-92q0 -28 -31 -28h-41v-80q0 -31 -27 -31h-94q-29 0 -29 31v80h-233q-31 0 -31 28z" />
<glyph unicode="&#xbf;" horiz-adv-x="829" d="M41 8v236q0 63 29.5 127.5t76.5 105.5l101 80q25 20 24 39l9 39q0 23 15 37t38 14h129q49 0 55 -51l2 -31q4 -63 -23.5 -128.5t-74.5 -106.5l-103 -84q-18 -14 -18 -39v-250q0 -55 53 -55h88q25 0 42.5 15t17.5 40v115q0 51 51 51h156q51 0 51 -51v-103q0 -147 -91 -237 t-239 -90h-61q-147 0 -237.5 90t-90.5 237zM254 903v148q0 35 21.5 55t56.5 20h133q35 0 55.5 -20t20.5 -55v-148q0 -35 -20.5 -56.5t-55.5 -21.5h-133q-35 0 -56.5 21.5t-21.5 56.5z" />
<glyph unicode="&#xc0;" horiz-adv-x="942" d="M12 49l344 1335q10 49 64 50h102q49 0 64 -50l344 -1335q10 -49 -39 -49h-166q-51 0 -61 49l-37 156h-314l-34 -156q-14 -49 -64 -49h-164q-23 0 -34 14.5t-5 34.5zM195 1694q-27 27 10 26h215q37 1 55 -32l80 -160q18 -33 -20 -33h-97q-41 0 -63 27zM375 465h190 l-78 334q-14 66 -14 155h-4q0 -80 -16 -155z" />
<glyph unicode="&#xc1;" horiz-adv-x="942" d="M12 49l344 1335q10 49 64 50h102q49 0 64 -50l344 -1335q10 -49 -39 -49h-166q-51 0 -61 49l-37 156h-314l-34 -156q-14 -49 -64 -49h-164q-23 0 -34 14.5t-5 34.5zM375 465h190l-78 334q-14 66 -14 155h-4q0 -80 -16 -155zM385.5 1504.5q-6.5 9.5 1.5 23.5l80 160 q18 33 57 32h213q35 0 13 -26l-181 -172q-27 -27 -65 -27h-96q-16 0 -22.5 9.5z" />
<glyph unicode="&#xc2;" horiz-adv-x="942" d="M12 49l344 1335q10 49 64 50h102q49 0 64 -50l344 -1335q10 -49 -39 -49h-166q-51 0 -61 49l-37 156h-314l-34 -156q-14 -49 -64 -49h-164q-23 0 -34 14.5t-5 34.5zM219 1538l133 166q20 31 60 31h123q36 0 61 -31l131 -166q25 -29 -14 -29h-135q-39 0 -60 31l-45 76 l-51 -76q-20 -31 -60 -31h-129q-39 0 -14 29zM375 465h190l-78 334q-14 66 -14 155h-4q0 -80 -16 -155z" />
<glyph unicode="&#xc3;" horiz-adv-x="942" d="M12 49l344 1335q10 49 64 50h102q49 0 64 -50l344 -1335q10 -49 -39 -49h-166q-51 0 -61 49l-37 156h-314l-34 -156q-14 -49 -64 -49h-164q-23 0 -34 14.5t-5 34.5zM229 1532v96q0 49 50.5 75t105.5 26q41 0 80 -17l63 -31q29 -14 56 -14q35 0 106 49q10 6 17 6 q14 0 14 -22v-96q0 -49 -51.5 -76t-104.5 -27q-43 0 -80 17l-63 30q-33 16 -57 17q-37 0 -105 -49q-8 -6 -16 -7q-15 0 -15 23zM375 465h190l-78 334q-14 66 -14 155h-4q0 -80 -16 -155z" />
<glyph unicode="&#xc4;" horiz-adv-x="942" d="M12 49l344 1335q10 49 64 50h102q49 0 64 -50l344 -1335q10 -49 -39 -49h-166q-51 0 -61 49l-37 156h-314l-34 -156q-14 -49 -64 -49h-164q-23 0 -34 14.5t-5 34.5zM219 1579v55q0 35 21.5 55.5t56.5 20.5h55q33 0 54.5 -21.5t21.5 -54.5v-55q0 -35 -20.5 -56.5 t-55.5 -21.5h-55q-35 0 -56.5 21.5t-21.5 56.5zM375 465h190l-78 334q-14 66 -14 155h-4q0 -80 -16 -155zM510 1579v55q0 33 21.5 54.5t54.5 21.5h55q35 0 55.5 -21.5t20.5 -54.5v-55q0 -35 -20.5 -56.5t-55.5 -21.5h-55q-35 0 -55.5 21.5t-20.5 56.5z" />
<glyph unicode="&#xc5;" horiz-adv-x="942" d="M12 49l344 1335q10 49 64 50h102q49 0 64 -50l344 -1335q10 -49 -39 -49h-166q-51 0 -61 49l-37 156h-314l-34 -156q-14 -49 -64 -49h-164q-23 0 -34 14.5t-5 34.5zM287 1669q0 76 54 130t130 54t130 -54t54 -130t-53 -130t-131 -54q-76 0 -130 54t-54 130zM375 465h190 l-78 334q-14 66 -14 155h-4q0 -80 -16 -155zM399 1669q0 -27 21.5 -49.5t50.5 -22.5t51.5 21.5t22.5 50.5t-22.5 50.5t-51.5 21.5t-50.5 -22.5t-21.5 -49.5z" />
<glyph unicode="&#xc6;" horiz-adv-x="1265" d="M12 49l473 1335q10 49 64 50h625q51 0 51 -52v-157q0 -51 -51 -51h-310v-394h215q51 0 51 -51v-158q0 -51 -51 -51h-215v-260h310q51 0 51 -51v-158q0 -51 -51 -51h-519q-51 0 -51 51v154h-264l-49 -156q-18 -49 -62 -49h-178q-23 0 -35 14.5t-4 34.5zM424 465h180v479 q0 74 14 156h-4q-18 -100 -36 -152z" />
<glyph unicode="&#xc7;" horiz-adv-x="921" d="M72 315v803q0 147 90 237.5t237 90.5h123q147 0 237.5 -90t90.5 -238v-110q0 -51 -51 -52h-158q-51 0 -51 52v122q0 55 -53 56h-152q-53 0 -53 -56v-827q0 -55 53 -55h152q53 0 53 55v123q0 51 51 51h158q51 0 51 -51v-111q0 -147 -90 -237t-238 -90h-123q-147 0 -237 90 t-90 237zM299 -250q0 37 39 37h111q31 0 30 31v4q0 31 -30 31h-39q-35 0 -53.5 21.5t-10.5 55.5l19 84h135l-11 -53q51 0 82 -31t31 -82v-57q0 -51 -30.5 -82t-82.5 -31h-151q-39 0 -39 37v35z" />
<glyph unicode="&#xc8;" horiz-adv-x="753" d="M92 51v1331q0 51 51 52h519q51 0 51 -52v-157q0 -51 -51 -51h-310v-394h215q51 0 51 -51v-158q0 -51 -51 -51h-215v-260h310q51 0 51 -51v-158q0 -51 -51 -51h-519q-51 0 -51 51zM125 1694q-27 27 10 26h215q35 1 58 -32l79 -160q8 -14 2 -23.5t-22 -9.5h-98 q-37 0 -64 27z" />
<glyph unicode="&#xc9;" horiz-adv-x="753" d="M92 51v1331q0 51 51 52h519q51 0 51 -52v-157q0 -51 -51 -51h-310v-394h215q51 0 51 -51v-158q0 -51 -51 -51h-215v-260h310q51 0 51 -51v-158q0 -51 -51 -51h-519q-51 0 -51 51zM315.5 1504.5q-6.5 9.5 1.5 23.5l82 160q18 33 56 32h215q37 0 10 -26l-180 -172 q-27 -27 -64 -27h-98q-16 0 -22.5 9.5z" />
<glyph unicode="&#xca;" horiz-adv-x="753" d="M92 51v1331q0 51 51 52h519q51 0 51 -52v-157q0 -51 -51 -51h-310v-394h215q51 0 51 -51v-158q0 -51 -51 -51h-215v-260h310q51 0 51 -51v-158q0 -51 -51 -51h-519q-51 0 -51 51zM150 1538l133 166q25 31 61 31h123q34 0 59 -31l133 -166q25 -29 -14 -29h-137 q-37 0 -57 31l-45 76l-54 -76q-18 -31 -59 -31h-129q-39 0 -14 29z" />
<glyph unicode="&#xcb;" horiz-adv-x="753" d="M92 51v1331q0 51 51 52h519q51 0 51 -52v-157q0 -51 -51 -51h-310v-394h215q51 0 51 -51v-158q0 -51 -51 -51h-215v-260h310q51 0 51 -51v-158q0 -51 -51 -51h-519q-51 0 -51 51zM152 1579v55q0 33 20.5 54.5t54.5 21.5h56q33 0 54 -21.5t21 -54.5v-55q0 -35 -20.5 -56.5 t-54.5 -21.5h-56q-35 0 -55 21.5t-20 56.5zM440 1579v55q0 33 21.5 54.5t54.5 21.5h55q35 0 56.5 -20.5t21.5 -55.5v-55q0 -35 -21.5 -56.5t-56.5 -21.5h-55q-35 0 -55.5 21.5t-20.5 56.5z" />
<glyph unicode="&#xcc;" horiz-adv-x="634" d="M39 1694q-23 27 12 26h213q40 1 58 -32l79 -160q8 -14 2 -23.5t-22 -9.5h-96q-39 0 -66 27zM57 51v144q0 51 52 51h79v942h-79q-51 0 -52 51v143q0 51 52 52h417q51 0 52 -52v-143q0 -51 -52 -51h-80v-942h80q51 0 52 -51v-144q0 -51 -52 -51h-417q-52 0 -52 51z" />
<glyph unicode="&#xcd;" horiz-adv-x="634" d="M57 51v144q0 51 52 51h79v942h-79q-51 0 -52 51v143q0 51 52 52h417q51 0 52 -52v-143q0 -51 -52 -51h-80v-942h80q51 0 52 -51v-144q0 -51 -52 -51h-417q-52 0 -52 51zM231.5 1504.5q-6.5 9.5 1.5 23.5l80 160q18 33 56 32h215q37 0 10 -26l-180 -172q-23 -27 -64 -27 h-96q-16 0 -22.5 9.5z" />
<glyph unicode="&#xce;" horiz-adv-x="634" d="M57 51v144q0 51 52 51h79v942h-79q-51 0 -52 51v143q0 51 52 52h417q51 0 52 -52v-143q0 -51 -52 -51h-80v-942h80q51 0 52 -51v-144q0 -51 -52 -51h-417q-52 0 -52 51zM66 1538l131 166q25 31 61 31h123q36 0 61 -31l131 -166q25 -29 -14 -29h-135q-39 0 -59 31l-46 76 l-51 -76q-20 -31 -59 -31h-129q-39 0 -14 29z" />
<glyph unicode="&#xcf;" horiz-adv-x="634" d="M57 51v144q0 51 52 51h79v942h-79q-51 0 -52 51v143q0 51 52 52h417q51 0 52 -52v-143q0 -51 -52 -51h-80v-942h80q51 0 52 -51v-144q0 -51 -52 -51h-417q-52 0 -52 51zM66 1579v55q0 33 20 54.5t55 21.5h56q35 0 56 -20.5t21 -55.5v-55q0 -35 -21.5 -56.5t-55.5 -21.5 h-56q-35 0 -55 21.5t-20 56.5zM354 1579v55q0 35 21.5 55.5t56.5 20.5h55q33 0 54.5 -21.5t21.5 -54.5v-55q0 -35 -20.5 -56.5t-55.5 -21.5h-55q-35 0 -56.5 21.5t-21.5 56.5z" />
<glyph unicode="&#xd0;" horiz-adv-x="925" d="M-4 651v103q0 51 51 51h45v577q0 51 51 52h383q147 0 237.5 -90.5t90.5 -237.5v-778q0 -147 -90 -237.5t-238 -90.5h-383q-51 0 -51 51v549h-45q-51 0 -51 51zM352 260h187q55 0 55 53v807q0 53 -55 54h-187v-369h115q51 0 51 -51v-103q0 -51 -51 -51h-115v-340z" />
<glyph unicode="&#xd1;" horiz-adv-x="950" d="M92 51v1331q0 51 51 52h103q51 0 71 -48l252 -595q29 -68 43 -150l4 2q-16 90 -16 154v585q0 51 51 52h156q51 0 51 -52v-1331q0 -51 -51 -51h-102q-53 0 -70 47l-254 584q-25 70 -43 151l-4 -2q18 -81 18 -155v-574q0 -51 -51 -51h-158q-51 0 -51 51zM233 1532v96 q0 49 50.5 75t105.5 26q43 0 80 -17l63 -31q29 -14 56 -14q39 0 106 49q10 6 17 6q14 0 14 -22v-96q0 -49 -50 -76t-106 -27q-41 0 -80 17l-63 30q-33 16 -55 17q-35 0 -107 -49q-10 -6 -16 -7q-15 0 -15 23z" />
<glyph unicode="&#xd2;" horiz-adv-x="952" d="M72 315v803q0 147 90 237.5t237 90.5h154q147 0 237.5 -90t90.5 -238v-803q0 -147 -90.5 -237t-237.5 -90h-154q-147 0 -237 90t-90 237zM199 1694q-27 27 10 26h215q37 1 55 -32l80 -160q10 -14 4 -23.5t-24 -9.5h-97q-37 0 -63 27zM332 303q0 -55 53 -55h182 q53 0 54 55v827q0 55 -54 56h-182q-53 -1 -53 -56v-827z" />
<glyph unicode="&#xd3;" horiz-adv-x="952" d="M72 315v803q0 147 90 237.5t237 90.5h154q147 0 237.5 -90t90.5 -238v-803q0 -147 -90.5 -237t-237.5 -90h-154q-147 0 -237 90t-90 237zM332 303q0 -55 53 -55h182q53 0 54 55v827q0 55 -54 56h-182q-53 -1 -53 -56v-827zM389.5 1504.5q-6.5 9.5 1.5 23.5l80 160 q23 33 57 32h213q39 0 13 -26l-181 -172q-27 -27 -65 -27h-96q-16 0 -22.5 9.5z" />
<glyph unicode="&#xd4;" horiz-adv-x="952" d="M72 315v803q0 147 90 237.5t237 90.5h154q147 0 237.5 -90t90.5 -238v-803q0 -147 -90.5 -237t-237.5 -90h-154q-147 0 -237 90t-90 237zM223 1538l133 166q25 31 62 31h121q36 0 61 -31l131 -166q25 -29 -14 -29h-135q-39 0 -60 31l-45 76l-51 -76q-18 -31 -59 -31h-129 q-39 0 -15 29zM332 303q0 -55 53 -55h182q53 0 54 55v827q0 55 -54 56h-182q-53 -1 -53 -56v-827z" />
<glyph unicode="&#xd5;" horiz-adv-x="952" d="M72 315v803q0 147 90 237.5t237 90.5h154q147 0 237.5 -90t90.5 -238v-803q0 -147 -90.5 -237t-237.5 -90h-154q-147 0 -237 90t-90 237zM233 1532v96q0 49 50.5 75t105.5 26q43 0 80 -17l63 -31q29 -14 56 -14q39 0 106 49q10 6 17 6q14 0 14 -22v-96q0 -49 -50 -76 t-106 -27q-43 0 -80 17l-63 30q-33 16 -55 17q-39 0 -107 -49q-10 -6 -16 -7q-15 0 -15 23zM332 303q0 -55 53 -55h182q53 0 54 55v827q0 55 -54 56h-182q-53 -1 -53 -56v-827z" />
<glyph unicode="&#xd6;" horiz-adv-x="952" d="M72 315v803q0 147 90 237.5t237 90.5h154q147 0 237.5 -90t90.5 -238v-803q0 -147 -90.5 -237t-237.5 -90h-154q-147 0 -237 90t-90 237zM223 1579v55q0 35 21.5 55.5t56.5 20.5h55q33 0 54.5 -21.5t21.5 -54.5v-55q0 -35 -20.5 -56.5t-55.5 -21.5h-55q-35 0 -56.5 21.5 t-21.5 56.5zM332 303q0 -55 53 -55h182q53 0 54 55v827q0 55 -54 56h-182q-53 -1 -53 -56v-827zM514 1579v55q0 33 21.5 54.5t54.5 21.5h55q35 0 55.5 -21.5t20.5 -54.5v-55q0 -35 -20.5 -56.5t-55.5 -21.5h-55q-35 0 -55.5 21.5t-20.5 56.5z" />
<glyph unicode="&#xd7;" horiz-adv-x="915" d="M133 483q-37 35 0 72l162 162l-162 162q-39 35 0 71l90 90q14 16 35 17q23 0 37 -17l162 -161l161 161q14 16 37 17q20 0 35 -17l90 -90q41 -35 0 -71l-162 -162l164 -162q39 -37 0 -72l-92 -92q-16 -16 -35 -16q-16 0 -37 16l-161 164l-162 -162q-16 -18 -35 -18 q-23 0 -37 18z" />
<glyph unicode="&#xd8;" horiz-adv-x="952" d="M72 315v803q0 147 90 237.5t237 90.5h154q51 0 104 -14l27 79q8 23 43 23l53 -18q33 -15 19 -50l-31 -92q113 -90 113 -256v-803q0 -147 -90.5 -237t-237.5 -90h-154q-47 0 -104 14l-27 -82q-10 -25 -32 -24q-2 0 -7 2h-4l-53 16q-14 6 -20.5 20.5t-1.5 28.5l32 96 q-111 90 -110 256zM332 492l235 694h-182q-53 0 -53 -56v-638zM385 248h182q53 0 54 55v641z" />
<glyph unicode="&#xd9;" horiz-adv-x="927" d="M72 315v1067q0 51 51 52h158q51 0 51 -52v-1079q0 -55 53 -55h158q25 0 40 15.5t15 39.5v1079q0 52 51 52h156q51 0 51 -52v-1067q0 -147 -90 -237t-238 -90h-129q-147 0 -237 90t-90 237zM186 1694q-27 27 11 26h215q34 1 57 -32l80 -160q8 -14 2 -23.5t-23 -9.5h-98 q-37 0 -63 27z" />
<glyph unicode="&#xda;" horiz-adv-x="927" d="M72 315v1067q0 51 51 52h158q51 0 51 -52v-1079q0 -55 53 -55h158q25 0 40 15.5t15 39.5v1079q0 52 51 52h156q51 0 51 -52v-1067q0 -147 -90 -237t-238 -90h-129q-147 0 -237 90t-90 237zM377 1504.5q-6 9.5 2 23.5l82 160q18 33 55 32h215q37 0 10 -26l-180 -172 q-27 -27 -63 -27h-99q-16 0 -22 9.5z" />
<glyph unicode="&#xdb;" horiz-adv-x="927" d="M72 315v1067q0 51 51 52h158q51 0 51 -52v-1079q0 -55 53 -55h158q25 0 40 15.5t15 39.5v1079q0 52 51 52h156q51 0 51 -52v-1067q0 -147 -90 -237t-238 -90h-129q-147 0 -237 90t-90 237zM211 1538l133 166q25 31 62 31h122q35 0 60 -31l133 -166q25 -29 -14 -29h-138 q-37 0 -57 31l-45 76l-53 -76q-18 -31 -60 -31h-129q-39 0 -14 29z" />
<glyph unicode="&#xdc;" horiz-adv-x="927" d="M72 315v1067q0 51 51 52h158q51 0 51 -52v-1079q0 -55 53 -55h158q25 0 40 15.5t15 39.5v1079q0 52 51 52h156q51 0 51 -52v-1067q0 -147 -90 -237t-238 -90h-129q-147 0 -237 90t-90 237zM213 1579v55q0 33 20.5 54.5t55.5 21.5h55q33 0 54.5 -21.5t21.5 -54.5v-55 q0 -35 -20.5 -56.5t-55.5 -21.5h-55q-35 0 -55.5 21.5t-20.5 56.5zM502 1579v55q0 33 21.5 54.5t54.5 21.5h55q35 0 56.5 -20.5t21.5 -55.5v-55q0 -35 -21.5 -56.5t-56.5 -21.5h-55q-35 0 -55.5 21.5t-20.5 56.5z" />
<glyph unicode="&#xdd;" horiz-adv-x="862" d="M14 1384q-16 49 33 50h168q51 0 68 -50l123 -385q23 -68 22 -151h4q0 86 25 151l123 385q16 49 67 50h166q51 -1 35 -50l-287 -845v-488q0 -51 -51 -51h-158q-51 0 -51 51v488zM344.5 1504.5q-6.5 9.5 1.5 23.5l82 160q18 33 55 32h215q37 0 11 -26l-181 -172 q-27 -27 -63 -27h-98q-16 0 -22.5 9.5z" />
<glyph unicode="&#xde;" horiz-adv-x="864" d="M92 51v1331q0 51 51 52h158q51 0 51 -52v-192h168q147 0 237.5 -90t90.5 -238v-237q0 -147 -90.5 -237.5t-237.5 -90.5h-168v-246q0 -51 -51 -51h-158q-51 0 -51 51zM352 557h180q25 0 40.5 15.5t15.5 39.5v265q-1 53 -56 53h-180v-373z" />
<glyph unicode="&#xdf;" horiz-adv-x="882" d="M82 51v1110q0 129 79 208t208 79h139q129 0 208 -81t79 -214v-102q0 -150 -99 -228q125 -80 125 -250v-280q0 -131 -78.5 -212t-207.5 -81h-64q-51 0 -51 51v129q0 51 51 51h51q33 0 43 20.5t10 65.5v297q0 43 -9 62.5t-44 19.5h-51q-51 0 -51 52v129q0 51 51 51h10 q68 0 68 82v114q0 47 -10.5 68.5t-44.5 21.5h-125q-41 0 -41 -40v-1123q0 -51 -52 -51h-143q-51 0 -51 51z" />
<glyph unicode="&#xe0;" d="M68 272v150q0 133 84 213t231 80q70 0 164 -8v116q0 43 -10.5 62.5t-44.5 19.5h-113q-35 0 -45 -19.5t-10 -62.5q0 -51 -52 -51h-143q-51 0 -51 51v29q0 129 79 208t208 79h141q129 0 208 -79t79 -208v-801q0 -51 -52 -51h-143q-51 0 -51 51v12q-133 -88 -233.5 -88 t-173 84t-72.5 213zM166 1386q-27 27 10 27h215q37 0 55 -33l80 -159q10 -14 4 -23.5t-24 -9.5h-96q-37 0 -64 26zM313 270q0 -61 64 -61q53 0 170 100v185q-123 12 -129 12q-45 0 -75 -21.5t-30 -60.5v-154z" />
<glyph unicode="&#xe1;" d="M68 272v150q0 133 84 213t231 80q70 0 164 -8v116q0 43 -10.5 62.5t-44.5 19.5h-113q-35 0 -45 -19.5t-10 -62.5q0 -51 -52 -51h-143q-51 0 -51 51v29q0 129 79 208t208 79h141q129 0 208 -79t79 -208v-801q0 -51 -52 -51h-143q-51 0 -51 51v12q-133 -88 -233.5 -88 t-173 84t-72.5 213zM313 270q0 -61 64 -61q53 0 170 100v185q-123 12 -129 12q-45 0 -75 -21.5t-30 -60.5v-154zM356.5 1197.5q-6.5 9.5 1.5 23.5l80 159q23 33 58 33h213q39 0 12 -27l-180 -172q-27 -27 -66 -26h-96q-16 0 -22.5 9.5z" />
<glyph unicode="&#xe2;" d="M68 272v150q0 133 84 213t231 80q70 0 164 -8v116q0 43 -10.5 62.5t-44.5 19.5h-113q-35 0 -45 -19.5t-10 -62.5q0 -51 -52 -51h-143q-51 0 -51 51v29q0 129 79 208t208 79h141q129 0 208 -79t79 -208v-801q0 -51 -52 -51h-143q-51 0 -51 51v12q-133 -88 -233.5 -88 t-173 84t-72.5 213zM190 1231l134 166q25 31 61 30h121q36 1 61 -30l131 -166q25 -29 -14 -29h-135q-39 0 -60 31l-45 76l-51 -76q-18 -31 -59 -31h-129q-39 0 -15 29zM313 270q0 -61 64 -61q53 0 170 100v185q-123 12 -129 12q-45 0 -75 -21.5t-30 -60.5v-154z" />
<glyph unicode="&#xe3;" d="M68 272v150q0 133 84 213t231 80q70 0 164 -8v116q0 43 -10.5 62.5t-44.5 19.5h-113q-35 0 -45 -19.5t-10 -62.5q0 -51 -52 -51h-143q-51 0 -51 51v29q0 129 79 208t208 79h141q129 0 208 -79t79 -208v-801q0 -51 -52 -51h-143q-51 0 -51 51v12q-133 -88 -233.5 -88 t-173 84t-72.5 213zM201 1225v96q0 49 50 74.5t105 25.5q43 0 80 -16l64 -31q29 -14 55 -14q39 0 107 49q10 6 16 6q14 0 14 -22v-97q0 -49 -50 -75.5t-105 -26.5q-43 0 -80 16l-64 31q-33 16 -55 16q-39 0 -107 -49q-10 -6 -16 -6q-14 0 -14 23zM313 270q0 -61 64 -61 q53 0 170 100v185q-123 12 -129 12q-45 0 -75 -21.5t-30 -60.5v-154z" />
<glyph unicode="&#xe4;" d="M68 272v150q0 133 84 213t231 80q70 0 164 -8v116q0 43 -10.5 62.5t-44.5 19.5h-113q-35 0 -45 -19.5t-10 -62.5q0 -51 -52 -51h-143q-51 0 -51 51v29q0 129 79 208t208 79h141q129 0 208 -79t79 -208v-801q0 -51 -52 -51h-143q-51 0 -51 51v12q-133 -88 -233.5 -88 t-173 84t-72.5 213zM190 1272v55q0 35 21.5 55.5t56.5 20.5h56q33 0 54 -21.5t21 -54.5v-55q0 -35 -20.5 -56.5t-54.5 -21.5h-56q-35 0 -56.5 21.5t-21.5 56.5zM313 270q0 -61 64 -61q53 0 170 100v185q-123 12 -129 12q-45 0 -75 -21.5t-30 -60.5v-154zM481 1272v55 q0 33 21.5 54.5t54.5 21.5h55q35 0 55.5 -21.5t20.5 -54.5v-55q0 -35 -20.5 -56.5t-55.5 -21.5h-55q-35 0 -55.5 21.5t-20.5 56.5z" />
<glyph unicode="&#xe5;" d="M68 272v150q0 133 84 213t231 80q70 0 164 -8v116q0 43 -10.5 62.5t-44.5 19.5h-113q-35 0 -45 -19.5t-10 -62.5q0 -51 -52 -51h-143q-51 0 -51 51v29q0 129 79 208t208 79h141q129 0 208 -79t79 -208v-801q0 -51 -52 -51h-143q-51 0 -51 51v12q-133 -88 -233.5 -88 t-173 84t-72.5 213zM258 1362q0 76 54.5 130t130 54t130 -54t54.5 -130t-53.5 -130t-131.5 -54q-76 0 -130 54t-54 130zM313 270q0 -61 64 -61q53 0 170 100v185q-123 12 -129 12q-45 0 -75 -21.5t-30 -60.5v-154zM371 1362q0 -27 21.5 -49.5t50 -22.5t51 21.5t22.5 50.5 t-22.5 50.5t-51 21.5t-50 -22.5t-21.5 -49.5z" />
<glyph unicode="&#xe6;" horiz-adv-x="1341" d="M68 272v150q0 133 82.5 213t230.5 80q72 0 166 -8v145v20q-10 33 -51 33h-115q-35 0 -46 -19.5t-11 -62.5q0 -51 -52 -51h-143q-51 0 -51 51v29q0 129 79 208t205 79h140q94 0 166 -45q72 45 166 45h153q129 0 208 -80t79 -209v-334q0 -51 -51 -51h-430v-205 q0 -39 41 -39h153q41 0 41 41v55q0 51 51 52h144q51 0 51 -52v-43q0 -129 -79 -207.5t-208 -78.5h-153q-147 0 -230 102q-178 -115 -282.5 -115t-179 84t-74.5 213zM313 270q0 -61 64 -61q53 0 170 100v185q-123 12 -129 12q-45 0 -75 -21.5t-30 -60.5v-154zM793 696h235 v168q0 41 -41 41h-153q-41 0 -41 -41v-168z" />
<glyph unicode="&#xe7;" horiz-adv-x="823" d="M61 274q0 -129 79 -207.5t208 -78.5h139q129 0 208 78.5t79 207.5v99q0 51 -51 51h-143q-51 0 -52 -51v-111q0 -41 -41 -41h-139q-41 0 -41 41v602q0 41 41 41h139q41 0 41 -41v-110q0 -51 52 -52h143q51 0 51 52v98q0 129 -79 208t-208 79h-139q-129 0 -208 -79 t-79 -208v-578zM248 -250q0 37 37 37h110q31 0 31 31v4q0 31 -31 31h-39q-35 0 -52 21.5t-11 55.5l18 84h138l-13 -53q51 0 82 -31t31 -82v-57q0 -51 -31 -82t-82 -31h-151q-37 0 -37 37v35z" />
<glyph unicode="&#xe8;" horiz-adv-x="856" d="M61 274v578q0 129 79 208t208 79h154q129 0 207.5 -80t78.5 -209v-334q0 -51 -51 -51h-430v-205q0 -39 41 -39h154q41 0 41 41v55q0 51 51 52h143q51 0 51 -52v-43q0 -129 -78.5 -207.5t-207.5 -78.5h-154q-129 0 -208 78.5t-79 207.5zM147 1386q-27 27 11 27h215 q37 0 55 -33l80 -159q10 -14 4 -23.5t-25 -9.5h-96q-37 0 -63 26zM307 696h236v168q0 41 -41 41h-154q-41 0 -41 -41v-168z" />
<glyph unicode="&#xe9;" horiz-adv-x="856" d="M61 274v578q0 129 79 208t208 79h154q129 0 207.5 -80t78.5 -209v-334q0 -51 -51 -51h-430v-205q0 -39 41 -39h154q41 0 41 41v55q0 51 51 52h143q51 0 51 -52v-43q0 -129 -78.5 -207.5t-207.5 -78.5h-154q-129 0 -208 78.5t-79 207.5zM307 696h236v168q0 41 -41 41h-154 q-41 0 -41 -41v-168zM338 1197.5q-6 9.5 2 23.5l80 159q23 33 57 33h213q39 0 12 -27l-180 -172q-27 -27 -65 -26h-97q-16 0 -22 9.5z" />
<glyph unicode="&#xea;" horiz-adv-x="856" d="M61 274v578q0 129 79 208t208 79h154q129 0 207.5 -80t78.5 -209v-334q0 -51 -51 -51h-430v-205q0 -39 41 -39h154q41 0 41 41v55q0 51 51 52h143q51 0 51 -52v-43q0 -129 -78.5 -207.5t-207.5 -78.5h-154q-129 0 -208 78.5t-79 207.5zM172 1231l133 166q25 31 62 30h120 q37 1 62 -30l131 -166q25 -29 -14 -29h-136q-39 0 -59 31l-45 76l-51 -76q-18 -31 -60 -31h-129q-39 0 -14 29zM307 696h236v168q0 41 -41 41h-154q-41 0 -41 -41v-168z" />
<glyph unicode="&#xeb;" horiz-adv-x="856" d="M61 274v578q0 129 79 208t208 79h154q129 0 207.5 -80t78.5 -209v-334q0 -51 -51 -51h-430v-205q0 -39 41 -39h154q41 0 41 41v55q0 51 51 52h143q51 0 51 -52v-43q0 -129 -78.5 -207.5t-207.5 -78.5h-154q-129 0 -208 78.5t-79 207.5zM172 1272v55q0 35 21.5 55.5 t56.5 20.5h55q35 0 55.5 -21.5t20.5 -54.5v-55q0 -35 -20.5 -56.5t-55.5 -21.5h-55q-35 0 -56.5 21.5t-21.5 56.5zM307 696h236v168q0 41 -41 41h-154q-41 0 -41 -41v-168zM463 1272v55q0 33 20.5 54.5t55.5 21.5h55q33 0 54.5 -21.5t21.5 -54.5v-55q0 -35 -20.5 -56.5 t-55.5 -21.5h-55q-35 0 -55.5 21.5t-20.5 56.5z" />
<glyph unicode="&#xec;" horiz-adv-x="409" d="M-72 1386q-27 27 11 27h215q34 0 57 -33l80 -159q8 -14 2 -23.5t-23 -9.5h-98q-37 0 -63 26zM82 51v1024q0 51 51 51h143q51 0 52 -51v-1024q0 -51 -52 -51h-143q-51 0 -51 51z" />
<glyph unicode="&#xed;" horiz-adv-x="409" d="M82 51v1024q0 51 51 51h143q51 0 52 -51v-1024q0 -51 -52 -51h-143q-51 0 -51 51zM119 1197.5q-6 9.5 2 23.5l82 159q18 33 55 33h215q37 0 10 -27l-180 -172q-27 -27 -63 -26h-99q-16 0 -22 9.5z" />
<glyph unicode="&#xee;" horiz-adv-x="409" d="M-47 1231l133 166q25 31 61 30h123q35 1 60 -30l133 -166q25 -29 -14 -29h-138q-37 0 -57 31l-45 76l-53 -76q-18 -31 -60 -31h-129q-39 0 -14 29zM82 51v1024q0 51 51 51h143q51 0 52 -51v-1024q0 -51 -52 -51h-143q-51 0 -51 51z" />
<glyph unicode="&#xef;" horiz-adv-x="409" d="M-45 1272v55q0 33 20.5 54.5t55.5 21.5h55q33 0 54.5 -21.5t21.5 -54.5v-55q0 -35 -20.5 -56.5t-55.5 -21.5h-55q-35 0 -55.5 21.5t-20.5 56.5zM82 51v1024q0 51 51 51h143q51 0 52 -51v-1024q0 -51 -52 -51h-143q-51 0 -51 51zM244 1272v55q0 33 21.5 54.5t53.5 21.5h56 q35 0 56.5 -20.5t21.5 -55.5v-55q0 -35 -21.5 -56.5t-56.5 -21.5h-56q-35 0 -55 21.5t-20 56.5z" />
<glyph unicode="&#xf0;" horiz-adv-x="880" d="M68 274v566q0 123 72.5 202.5t172.5 79.5q113 1 260 -73v38q0 49 -19 74t-67 43l-6 -22q-8 -39 -49 -39q-2 0 -6 1t-6 1l-66 12q-23 4 -34 21.5t-5 40.5l4 16l-83 12q-92 12 -93 62v104q0 47 64 47q25 0 39 -2l119 -14l8 29q10 39 49 38q2 0 6 -1t6 -1l72 -20 q49 -14 37 -62l-4 -12q158 -35 219 -112.5t61 -241.5v-787q0 -129 -78.5 -207.5t-208.5 -78.5h-178q-129 0 -207.5 78.5t-78.5 207.5zM313 303q0 -43 10.5 -62.5t45.5 -19.5h149q35 0 45 19.5t10 62.5v496q-131 92 -196 92q-63 0 -64 -55v-533z" />
<glyph unicode="&#xf1;" horiz-adv-x="876" d="M82 51v1024q0 51 51 51h143q51 0 52 -51v-8q131 84 223 84q100 0 172 -83t72 -210v-807q0 -51 -52 -51h-143q-51 0 -51 51v809q0 57 -62 58q-55 0 -159 -95v-772q0 -51 -52 -51h-143q-51 0 -51 51zM195 1225v96q0 49 50 74.5t103 25.5q43 0 82 -16l64 -31q29 -14 55 -14 q35 0 106 49q8 6 17 6q14 0 14 -22v-97q0 -49 -51 -75.5t-107 -26.5q-41 0 -77 16l-64 31q-37 16 -57 16q-37 0 -105 -49q-10 -6 -16 -6q-14 0 -14 23z" />
<glyph unicode="&#xf2;" horiz-adv-x="870" d="M61 274v578q0 129 79 208t208 79h174q129 0 208 -79t79 -208v-578q0 -129 -79 -207.5t-208 -78.5h-174q-129 0 -208 78.5t-79 207.5zM158 1386q-27 27 10 27h215q37 0 55 -33l80 -159q10 -14 4 -23.5t-24 -9.5h-97q-37 0 -63 26zM307 262q0 -41 41 -41h174q41 0 41 41 v602q0 41 -41 41h-174q-41 0 -41 -41v-602z" />
<glyph unicode="&#xf3;" horiz-adv-x="870" d="M61 274v578q0 129 79 208t208 79h174q129 0 208 -79t79 -208v-578q0 -129 -79 -207.5t-208 -78.5h-174q-129 0 -208 78.5t-79 207.5zM307 262q0 -41 41 -41h174q41 0 41 41v602q0 41 -41 41h-174q-41 0 -41 -41v-602zM348.5 1197.5q-6.5 9.5 1.5 23.5l80 159q23 33 57 33 h213q39 0 13 -27l-181 -172q-27 -27 -65 -26h-96q-16 0 -22.5 9.5z" />
<glyph unicode="&#xf4;" horiz-adv-x="870" d="M61 274v578q0 129 79 208t208 79h174q129 0 208 -79t79 -208v-578q0 -129 -79 -207.5t-208 -78.5h-174q-129 0 -208 78.5t-79 207.5zM182 1231l133 166q25 31 62 30h121q36 1 61 -30l131 -166q25 -29 -14 -29h-135q-39 0 -60 31l-45 76l-51 -76q-18 -31 -59 -31h-129 q-39 0 -15 29zM307 262q0 -41 41 -41h174q41 0 41 41v602q0 41 -41 41h-174q-41 0 -41 -41v-602z" />
<glyph unicode="&#xf5;" horiz-adv-x="870" d="M61 274v578q0 129 79 208t208 79h174q129 0 208 -79t79 -208v-578q0 -129 -79 -207.5t-208 -78.5h-174q-129 0 -208 78.5t-79 207.5zM193 1225v96q0 49 50 74.5t105 25.5q43 0 80 -16l64 -31q29 -14 55 -14q39 0 106 49q10 6 17 6q14 0 14 -22v-97q0 -49 -50 -75.5 t-106 -26.5q-43 0 -79 16l-64 31q-33 16 -55 16q-39 0 -107 -49q-8 -6 -16 -6q-14 0 -14 23zM307 262q0 -41 41 -41h174q41 0 41 41v602q0 41 -41 41h-174q-41 0 -41 -41v-602z" />
<glyph unicode="&#xf6;" horiz-adv-x="870" d="M61 274v578q0 129 79 208t208 79h174q129 0 208 -79t79 -208v-578q0 -129 -79 -207.5t-208 -78.5h-174q-129 0 -208 78.5t-79 207.5zM182 1272v55q0 35 21.5 55.5t56.5 20.5h55q33 0 54.5 -21.5t21.5 -54.5v-55q0 -35 -20.5 -56.5t-55.5 -21.5h-55q-35 0 -56.5 21.5 t-21.5 56.5zM307 262q0 -41 41 -41h174q41 0 41 41v602q0 41 -41 41h-174q-41 0 -41 -41v-602zM473 1272v55q0 33 21.5 54.5t54.5 21.5h55q35 0 55.5 -21.5t20.5 -54.5v-55q0 -35 -20.5 -56.5t-55.5 -21.5h-55q-35 0 -55.5 21.5t-20.5 56.5z" />
<glyph unicode="&#xf7;" horiz-adv-x="915" d="M102 666v129q0 51 52 51h608q51 0 51 -51v-129q0 -51 -51 -52h-608q-52 1 -52 52zM313 342v147q0 78 74 78h135q35 0 56.5 -21.5t21.5 -56.5v-147q0 -35 -21.5 -55.5t-56.5 -20.5h-135q-35 0 -54.5 20.5t-19.5 55.5zM317 971v147q0 35 21.5 55.5t56.5 20.5h135 q35 0 56.5 -20.5t21.5 -55.5v-147q0 -35 -21.5 -55.5t-56.5 -20.5h-135q-35 0 -56.5 20.5t-21.5 55.5z" />
<glyph unicode="&#xf8;" horiz-adv-x="870" d="M61 274v578q0 129 79 208t208 79h174q6 0 18.5 -1t18.5 -1l23 69q6 20 34 21l41 -13q25 -6 21 -38l-21 -66q152 -72 152 -258v-578q0 -129 -79 -207.5t-208 -78.5h-174q-6 0 -18.5 1t-18.5 1l-22 -70q-10 -23 -27 -22q-2 0 -6 1t-6 1l-37 12q-28 6 -20 39l20 65 q-152 70 -152 258zM307 319l180 586h-139q-41 0 -41 -41v-545zM383 221h139q41 0 41 41v545z" />
<glyph unicode="&#xf9;" horiz-adv-x="907" d="M82 268v807q0 51 51 51h143q51 0 52 -53v-807q0 -57 63 -57q68 0 189 121v745q0 51 51 51h143q51 0 51 -51v-1024q0 -51 -51 -51h-143q-51 0 -51 51v27q-141 -102 -254 -103q-100 0 -172 83t-72 210zM176 1386q-27 27 10 27h215q35 0 58 -33l80 -159q8 -14 2 -23.5 t-23 -9.5h-98q-37 0 -64 26z" />
<glyph unicode="&#xfa;" horiz-adv-x="907" d="M82 268v807q0 51 51 51h143q51 0 52 -53v-807q0 -57 63 -57q68 0 189 121v745q0 51 51 51h143q51 0 51 -51v-1024q0 -51 -51 -51h-143q-51 0 -51 51v27q-141 -102 -254 -103q-100 0 -172 83t-72 210zM367 1197.5q-6 9.5 2 23.5l82 159q18 33 55 33h215q37 0 10 -27 l-180 -172q-27 -27 -64 -26h-98q-16 0 -22 9.5z" />
<glyph unicode="&#xfb;" horiz-adv-x="907" d="M82 268v807q0 51 51 51h143q51 0 52 -53v-807q0 -57 63 -57q68 0 189 121v745q0 51 51 51h143q51 0 51 -51v-1024q0 -51 -51 -51h-143q-51 0 -51 51v27q-141 -102 -254 -103q-100 0 -172 83t-72 210zM201 1231l133 166q25 31 61 30h123q35 1 60 -30l133 -166 q25 -29 -15 -29h-137q-37 0 -57 31l-45 76l-54 -76q-18 -31 -59 -31h-129q-39 0 -14 29z" />
<glyph unicode="&#xfc;" horiz-adv-x="907" d="M82 268v807q0 51 51 51h143q51 0 52 -53v-807q0 -57 63 -57q68 0 189 121v745q0 51 51 51h143q51 0 51 -51v-1024q0 -51 -51 -51h-143q-51 0 -51 51v27q-141 -102 -254 -103q-100 0 -172 83t-72 210zM203 1272v55q0 33 21.5 54.5t54.5 21.5h55q35 0 55.5 -21.5 t20.5 -54.5v-55q0 -35 -20.5 -56.5t-55.5 -21.5h-55q-35 0 -55.5 21.5t-20.5 56.5zM492 1272v55q0 33 20 54.5t55 21.5h56q35 0 56 -20.5t21 -55.5v-55q0 -35 -21.5 -56.5t-55.5 -21.5h-56q-35 0 -55 21.5t-20 56.5z" />
<glyph unicode="&#xfd;" horiz-adv-x="808" d="M18 1077q-10 49 39 49h152q49 0 63 -49l113 -522q14 -63 14 -152h4q0 80 17 152l117 522q14 49 63 49h152q23 0 33 -13t3 -36l-335 -1335q-14 -49 -64 -49h-133q-23 0 -34 14.5t-5 34.5l70 258zM317.5 1197.5q-6.5 9.5 1.5 23.5l80 159q18 33 56 33h215q37 0 10 -27 l-180 -172q-23 -27 -64 -26h-96q-16 0 -22.5 9.5z" />
<glyph unicode="&#xfe;" d="M82 -256v1638q0 51 51 52h143q51 0 52 -52v-317q145 86 239 86q100 0 173 -83t73 -210v-590q0 -127 -72.5 -210t-173.5 -83q-94 0 -239 86v-317q-1 -51 -52 -51h-143q-51 0 -51 51zM328 307q119 -98 176 -98q63 0 63 57v594q0 57 -63 58q-57 -1 -176 -99v-512z" />
<glyph unicode="&#xff;" horiz-adv-x="808" d="M18 1077q-10 49 39 49h152q49 0 63 -49l113 -522q14 -63 14 -152h4q0 80 17 152l117 522q14 49 63 49h152q23 0 33 -13t3 -36l-335 -1335q-14 -49 -64 -49h-133q-23 0 -34 14.5t-5 34.5l70 258zM152 1272v55q0 33 20.5 54.5t54.5 21.5h56q35 0 56 -20.5t21 -55.5v-55 q0 -35 -21.5 -56.5t-55.5 -21.5h-56q-35 0 -55 21.5t-20 56.5zM440 1272v55q0 35 21.5 55.5t56.5 20.5h55q33 0 54.5 -21.5t21.5 -54.5v-55q0 -35 -20.5 -56.5t-55.5 -21.5h-55q-35 0 -56.5 21.5t-21.5 56.5z" />
<glyph unicode="&#x152;" horiz-adv-x="1284" d="M72 315v803q0 147 90 237.5t237 90.5h154q47 0 104 -14q5 2 15 2h520q51 0 51 -52v-157q0 -51 -51 -51h-311v-394h215q51 0 51 -51v-158q0 -51 -51 -51h-215v-260h311q51 0 51 -51v-158q0 -51 -51 -51h-520q-10 0 -15 2q-57 -14 -104 -14h-154q-147 0 -237 90t-90 237z M332 303q0 -55 53 -55h182q53 0 54 55v827q0 55 -54 56h-182q-53 -1 -53 -56v-827z" />
<glyph unicode="&#x153;" horiz-adv-x="1357" d="M61 274v578q0 129 79 208t208 79h174q92 0 164 -45q72 45 164 45h154q129 0 207.5 -80t78.5 -209v-334q0 -51 -51 -51h-430v-205q0 -39 41 -39h154q41 0 40 41v55q0 51 52 52h143q51 0 51 -52v-43q0 -129 -78.5 -207.5t-207.5 -78.5h-154q-92 0 -164 45q-72 -45 -164 -45 h-174q-129 0 -208 78.5t-79 207.5zM307 262q0 -41 41 -41h174q41 0 41 41v602q0 41 -41 41h-174q-41 0 -41 -41v-602zM809 696h235v168q1 41 -40 41h-154q-41 0 -41 -41v-168z" />
<glyph unicode="&#x178;" horiz-adv-x="862" d="M14 1384q-16 49 33 50h168q51 0 68 -50l123 -385q23 -68 22 -151h4q0 86 25 151l123 385q16 49 67 50h166q51 -1 35 -50l-287 -845v-488q0 -51 -51 -51h-158q-51 0 -51 51v488zM180 1579v55q0 33 20.5 54.5t55.5 21.5h55q33 0 54.5 -21.5t21.5 -54.5v-55 q0 -35 -20.5 -56.5t-55.5 -21.5h-55q-35 0 -55.5 21.5t-20.5 56.5zM469 1579v55q0 33 21.5 54.5t54.5 21.5h55q35 0 56.5 -20.5t21.5 -55.5v-55q0 -35 -21.5 -56.5t-56.5 -21.5h-55q-35 0 -55.5 21.5t-20.5 56.5z" />
<glyph unicode="&#x2c6;" horiz-adv-x="565" d="M29 1464l133 166q20 29 59 29h123q37 0 62 -29l131 -166q25 -31 -15 -30h-135q-39 0 -59 30l-45 76l-52 -76q-25 -31 -59 -30h-129q-39 0 -14 30z" />
<glyph unicode="&#x2dc;" horiz-adv-x="526" d="M20 1458v94q0 49 50.5 75t105.5 26q49 0 80 -17l63 -30q29 -14 56 -15q39 0 106 49q10 6 17 7q14 0 14 -23v-94q0 -49 -50 -76t-106 -27q-49 0 -80 17l-63 31q-29 14 -55 14q-41 0 -107 -47q-8 -6 -16 -6q-15 -1 -15 22z" />
<glyph unicode="&#x2000;" horiz-adv-x="926" />
<glyph unicode="&#x2001;" horiz-adv-x="1853" />
<glyph unicode="&#x2002;" horiz-adv-x="926" />
<glyph unicode="&#x2003;" horiz-adv-x="1853" />
<glyph unicode="&#x2004;" horiz-adv-x="617" />
<glyph unicode="&#x2005;" horiz-adv-x="463" />
<glyph unicode="&#x2006;" horiz-adv-x="308" />
<glyph unicode="&#x2007;" horiz-adv-x="308" />
<glyph unicode="&#x2008;" horiz-adv-x="231" />
<glyph unicode="&#x2009;" horiz-adv-x="370" />
<glyph unicode="&#x200a;" horiz-adv-x="102" />
<glyph unicode="&#x2010;" horiz-adv-x="573" d="M76 559v131q0 37 37 37h348q37 0 37 -37v-131q0 -37 -37 -37h-348q-37 0 -37 37z" />
<glyph unicode="&#x2011;" horiz-adv-x="573" d="M76 559v131q0 37 37 37h348q37 0 37 -37v-131q0 -37 -37 -37h-348q-37 0 -37 37z" />
<glyph unicode="&#x2012;" horiz-adv-x="573" d="M76 559v131q0 37 37 37h348q37 0 37 -37v-131q0 -37 -37 -37h-348q-37 0 -37 37z" />
<glyph unicode="&#x2013;" horiz-adv-x="942" d="M76 559v131q0 37 37 37h716q37 0 37 -37v-131q0 -37 -37 -37h-716q-37 0 -37 37z" />
<glyph unicode="&#x2014;" horiz-adv-x="1720" d="M76 559v131q0 37 37 37h1495q37 0 37 -37v-131q0 -37 -37 -37h-1495q-37 0 -37 37z" />
<glyph unicode="&#x2018;" horiz-adv-x="440" d="M78 1006l80 366q16 61 78 62h65q63 -1 57 -64l-28 -362q-4 -35 -26.5 -55.5t-55.5 -20.5h-111q-33 0 -50 20.5t-9 53.5z" />
<glyph unicode="&#x2019;" horiz-adv-x="440" d="M82 995l29 363q4 35 26.5 55.5t57.5 20.5h108q35 0 52.5 -20.5t9.5 -53.5l-82 -367q-14 -61 -78 -61h-66q-29 0 -44 17t-13 46z" />
<glyph unicode="&#x201a;" horiz-adv-x="331" d="M27 -135l30 362q4 35 26.5 55.5t55.5 20.5h111q35 0 51 -20.5t8 -53.5l-82 -366q-14 -61 -75 -62h-68q-27 0 -43 17.5t-14 46.5z" />
<glyph unicode="&#x201c;" horiz-adv-x="755" d="M78 1006l82 366q14 61 76 62h65q29 0 44 -17.5t13 -46.5l-28 -362q-4 -35 -26.5 -55.5t-57.5 -20.5h-109q-35 0 -51 20.5t-8 53.5zM393 1006l82 366q14 61 76 62h65q29 0 44.5 -17.5t13.5 -46.5l-29 -362q-4 -35 -26.5 -55.5t-57.5 -20.5h-108q-35 0 -51.5 20.5 t-8.5 53.5z" />
<glyph unicode="&#x201d;" horiz-adv-x="755" d="M82 995l29 363q2 33 25.5 54.5t58.5 21.5h110q33 0 49.5 -20.5t7.5 -53.5l-81 -367q-4 -27 -24.5 -44t-49.5 -17h-68q-29 0 -44 17t-13 46zM397 995l29 363q2 33 25.5 54.5t58.5 21.5h111q33 0 49 -20.5t8 -53.5l-82 -367q-4 -27 -24.5 -44t-49.5 -17h-67q-29 0 -44.5 17 t-13.5 46z" />
<glyph unicode="&#x201e;" horiz-adv-x="755" d="M82 -135l29 362q4 35 26.5 55.5t57.5 20.5h108q35 0 52.5 -20.5t9.5 -53.5l-82 -366q-14 -61 -78 -62h-66q-27 0 -43 17.5t-14 46.5zM397 -135l29 362q4 35 26.5 55.5t57.5 20.5h108q35 0 52.5 -20.5t9.5 -53.5l-82 -366q-14 -61 -78 -62h-65q-27 0 -43.5 17.5 t-14.5 46.5z" />
<glyph unicode="&#x2022;" horiz-adv-x="614" d="M76 463v321q0 33 19.5 52.5t51.5 19.5h320q33 0 52.5 -19.5t19.5 -52.5v-321q0 -33 -19.5 -52.5t-52.5 -19.5h-320q-33 0 -52 19.5t-19 52.5z" />
<glyph unicode="&#x2026;" horiz-adv-x="1310" d="M76 76v147q0 35 20.5 56.5t55.5 21.5h133q35 0 56 -21.5t21 -56.5v-147q0 -35 -21.5 -55.5t-55.5 -20.5h-133q-33 0 -54.5 20.5t-21.5 55.5zM512 76v147q0 35 20.5 56.5t55.5 21.5h135q35 0 55.5 -21.5t20.5 -56.5v-147q0 -35 -20.5 -55.5t-55.5 -20.5h-135 q-35 0 -55.5 20.5t-20.5 55.5zM948 76v147q0 35 21.5 56.5t56.5 21.5h133q35 0 55.5 -21.5t20.5 -56.5v-147q0 -35 -21.5 -55.5t-54.5 -20.5h-133q-35 0 -56.5 20.5t-21.5 55.5z" />
<glyph unicode="&#x202f;" horiz-adv-x="370" />
<glyph unicode="&#x2039;" horiz-adv-x="561" d="M41 600v49q0 51 37 88l258 269q16 16 35 16q20 0 37 -16l73 -74q35 -37 0 -72l-225 -235l225 -236q35 -37 0 -72l-73 -73q-16 -16 -37 -17q-18 0 -35 17l-258 268q-37 37 -37 88z" />
<glyph unicode="&#x203a;" horiz-adv-x="561" d="M82 317q-37 35 0 72l225 236l-225 235q-37 35 0 72l72 74q20 16 36.5 16t36.5 -16l258 -269q35 -39 35 -88v-49q0 -49 -35 -88l-258 -268q-20 -16 -36.5 -16.5t-36.5 16.5z" />
<glyph unicode="&#x205f;" horiz-adv-x="463" />
<glyph unicode="&#x20ac;" horiz-adv-x="989" d="M25 528v103q0 51 51 51h63v70h-63q-51 0 -51 51v102q0 51 51 51h63v162q0 147 90 237.5t238 90.5h123q147 0 237.5 -90t90.5 -238v-110q0 -51 -52 -52h-155q-51 0 -52 52v122q0 25 -15 40.5t-40 15.5h-149q-25 0 -40.5 -15.5t-15.5 -40.5v-174h199q51 0 51 -51v-102 q0 -51 -51 -51h-199v-70h199q51 0 51 -51v-103q0 -51 -51 -51h-199v-174q0 -25 15.5 -40t40.5 -15h149q25 0 40 15.5t15 39.5v123q0 51 52 51h155q51 0 52 -51v-111q0 -147 -90.5 -237t-237.5 -90h-123q-147 0 -237.5 90t-90.5 237v162h-63q-51 0 -51 51z" />
<glyph unicode="&#x2122;" horiz-adv-x="1040" d="M10 1313v90q0 31 31 31h321q29 0 29 -31v-90q0 -29 -29 -29h-88v-536q0 -31 -28 -31h-92q-29 0 -29 31v536h-84q-31 0 -31 29zM489 748v655q0 31 31 31h105q31 0 41 -29l63 -213q10 -37 10 -90h9q0 53 10 90l63 215q10 27 41 27h107q29 0 28 -31v-655q0 -31 -28 -31h-84 q-29 0 -29 31v276q0 41 8 90l-4 4q-8 -57 -20 -92l-43 -147q-10 -29 -41 -29h-25q-31 0 -37 29l-49 151q-10 31 -18 88l-4 -4q10 -61 10 -90v-276q0 -31 -31 -31h-82q-31 0 -31 31z" />
<glyph unicode="&#x25fc;" horiz-adv-x="1125" d="M0 0v1125h1125v-1125h-1125z" />
</font>
</defs>
</svg>
